<svg xmlns="http://www.w3.org/2000/svg" xmlns:xlink="http://www.w3.org/1999/xlink" width="500" zoomAndPan="magnify" viewBox="0 0 375 374.999991" height="500" preserveAspectRatio="xMidYMid meet" version="1.0"><defs><g/><clipPath id="228c7deb8b"><path d="M 57.519531 16 L 65 16 L 65 36.871094 L 57.519531 36.871094 Z M 57.519531 16 " clip-rule="nonzero"/></clipPath><clipPath id="14dc59ce36"><path d="M 57.519531 13.179688 L 67 13.179688 L 67 36.871094 L 57.519531 36.871094 Z M 57.519531 13.179688 " clip-rule="nonzero"/></clipPath><clipPath id="4f5c3551b2"><path d="M 65.226562 13.1875 L 74.050781 13.1875 L 74.050781 36.863281 L 65.226562 36.863281 Z M 65.226562 13.1875 " clip-rule="nonzero"/></clipPath></defs><g clip-path="url(#228c7deb8b)"><path fill="#c3996b" d="M 62.101562 36.433594 C 60.84375 35.753906 59.738281 34.488281 58.980469 32.847656 C 58.085938 30.917969 57.703125 28.632812 57.875 26.238281 C 58.058594 23.632812 58.894531 21.191406 60.226562 19.363281 C 61.179688 18.058594 62.304688 17.152344 63.519531 16.714844 C 63.058594 18.25 62.714844 20.617188 63.222656 23.894531 C 63.332031 24.609375 63.46875 25.351562 63.601562 26.070312 C 63.984375 28.144531 64.378906 30.289062 64.222656 32.171875 C 64.066406 34.042969 63.390625 35.402344 62.101562 36.433594 " fill-opacity="1" fill-rule="nonzero"/></g><path fill="#c3996b" d="M 68.195312 34.910156 C 69.3125 32.949219 70 29.871094 68.585938 25.257812 C 68.210938 24.027344 67.667969 21.777344 67.382812 19.472656 C 67.125 17.414062 67.128906 15.777344 67.386719 14.710938 C 68.972656 15.191406 70.371094 16.484375 71.355469 18.382812 C 72.425781 20.445312 72.910156 23.046875 72.722656 25.707031 C 72.535156 28.398438 71.671875 30.925781 70.292969 32.828125 C 69.667969 33.6875 68.957031 34.394531 68.195312 34.910156 " fill-opacity="1" fill-rule="nonzero"/><g clip-path="url(#14dc59ce36)"><path fill="#8a5d3b" d="M 65.949219 30.558594 C 65.921875 32.644531 65.246094 34.199219 63.835938 35.425781 C 62.359375 34.824219 61.023438 33.539062 60.050781 31.773438 C 58.976562 29.824219 58.410156 27.472656 58.410156 24.964844 C 58.410156 22.246094 59.101562 19.640625 60.359375 17.632812 C 61.410156 15.957031 62.777344 14.816406 64.269531 14.355469 C 63.789062 16.015625 63.515625 18.566406 64.328125 22.132812 C 64.492188 22.847656 64.683594 23.589844 64.871094 24.308594 C 65.414062 26.414062 65.976562 28.589844 65.949219 30.558594 Z M 65.734375 24.085938 C 65.550781 23.375 65.359375 22.636719 65.199219 21.933594 C 64.25 17.769531 64.894531 15.113281 65.359375 13.902344 L 65.636719 13.1875 L 64.875 13.304688 C 60.679688 13.953125 57.519531 18.964844 57.519531 24.964844 C 57.519531 30.371094 60.089844 35.050781 63.773438 36.351562 L 64.007812 36.433594 L 64.203125 36.277344 C 65.945312 34.867188 66.808594 33 66.84375 30.570312 C 66.871094 28.484375 66.292969 26.25 65.734375 24.085938 " fill-opacity="1" fill-rule="nonzero"/></g><g clip-path="url(#4f5c3551b2)"><path fill="#8a5d3b" d="M 68.078125 35.269531 C 69.414062 33.390625 70.453125 30.128906 68.445312 24.925781 C 67.988281 23.738281 67.296875 21.546875 66.851562 19.292969 C 66.410156 17.035156 66.320312 15.28125 66.59375 14.1875 C 70.304688 14.785156 73.160156 19.421875 73.160156 24.964844 C 73.160156 27.675781 72.472656 30.269531 71.222656 32.273438 C 70.359375 33.667969 69.273438 34.691406 68.078125 35.269531 Z M 71.847656 16.980469 C 70.40625 14.769531 68.4375 13.449219 66.316406 13.257812 L 65.976562 13.226562 L 65.855469 13.546875 C 64.839844 16.304688 66.601562 22.617188 67.613281 25.246094 C 69.976562 31.375 67.851562 34.523438 66.378906 35.851562 L 65.253906 36.863281 L 66.75 36.621094 C 70.914062 35.9375 74.050781 30.925781 74.050781 24.964844 C 74.050781 21.988281 73.269531 19.152344 71.847656 16.980469 " fill-opacity="1" fill-rule="nonzero"/></g><g fill="#e75480" fill-opacity="1"><g transform="translate(26.538408, 51.10583)"><g><path d="M 3.625 -4.578125 C 3.625 -4.578125 3.601562 -4.609375 3.5625 -4.671875 C 3.519531 -4.742188 3.441406 -4.820312 3.328125 -4.90625 C 3.222656 -4.988281 3.066406 -5.0625 2.859375 -5.125 C 2.648438 -5.195312 2.382812 -5.234375 2.0625 -5.234375 L 1.234375 -5.234375 L 1.234375 -0.921875 C 1.234375 -0.660156 1.253906 -0.460938 1.296875 -0.328125 C 1.347656 -0.203125 1.394531 -0.113281 1.4375 -0.0625 C 1.476562 -0.0195312 1.5 0 1.5 0 L 0.15625 0 C 0.15625 0 0.175781 -0.0195312 0.21875 -0.0625 C 0.269531 -0.113281 0.316406 -0.203125 0.359375 -0.328125 C 0.410156 -0.460938 0.4375 -0.660156 0.4375 -0.921875 L 0.4375 -8.5 C 0.4375 -8.757812 0.410156 -8.945312 0.359375 -9.0625 C 0.316406 -9.1875 0.269531 -9.265625 0.21875 -9.296875 C 0.175781 -9.335938 0.15625 -9.359375 0.15625 -9.359375 L 6.0625 -9.359375 L 6.328125 -8.125 C 6.328125 -8.125 6.304688 -8.15625 6.265625 -8.21875 C 6.222656 -8.289062 6.132812 -8.375 6 -8.46875 C 5.875 -8.5625 5.6875 -8.65625 5.4375 -8.75 C 5.1875 -8.851562 4.851562 -8.9375 4.4375 -9 C 4.03125 -9.070312 3.519531 -9.109375 2.90625 -9.109375 L 1.3125 -9.109375 C 1.289062 -9.046875 1.269531 -8.960938 1.25 -8.859375 C 1.238281 -8.765625 1.234375 -8.644531 1.234375 -8.5 L 1.234375 -5.453125 L 2.0625 -5.453125 C 2.382812 -5.453125 2.648438 -5.484375 2.859375 -5.546875 C 3.066406 -5.617188 3.222656 -5.695312 3.328125 -5.78125 C 3.441406 -5.863281 3.519531 -5.9375 3.5625 -6 C 3.601562 -6.070312 3.625 -6.109375 3.625 -6.109375 Z M 3.625 -4.578125 "/></g></g></g><g fill="#e75480" fill-opacity="1"><g transform="translate(34.304358, 51.10583)"><g><path d="M 3.515625 -6.984375 C 3.984375 -6.984375 4.421875 -6.890625 4.828125 -6.703125 C 5.234375 -6.523438 5.585938 -6.273438 5.890625 -5.953125 C 6.203125 -5.640625 6.441406 -5.269531 6.609375 -4.84375 C 6.785156 -4.425781 6.875 -3.972656 6.875 -3.484375 C 6.875 -3.003906 6.785156 -2.550781 6.609375 -2.125 C 6.441406 -1.707031 6.203125 -1.335938 5.890625 -1.015625 C 5.585938 -0.691406 5.234375 -0.441406 4.828125 -0.265625 C 4.421875 -0.0859375 3.984375 0 3.515625 0 C 3.054688 0 2.625 -0.0859375 2.21875 -0.265625 C 1.8125 -0.441406 1.453125 -0.691406 1.140625 -1.015625 C 0.835938 -1.335938 0.597656 -1.707031 0.421875 -2.125 C 0.242188 -2.550781 0.15625 -3.003906 0.15625 -3.484375 C 0.15625 -3.972656 0.242188 -4.425781 0.421875 -4.84375 C 0.597656 -5.269531 0.835938 -5.640625 1.140625 -5.953125 C 1.453125 -6.273438 1.8125 -6.523438 2.21875 -6.703125 C 2.625 -6.890625 3.054688 -6.984375 3.515625 -6.984375 Z M 3.515625 -0.296875 C 3.867188 -0.296875 4.195312 -0.378906 4.5 -0.546875 C 4.8125 -0.710938 5.082031 -0.945312 5.3125 -1.25 C 5.539062 -1.550781 5.71875 -1.894531 5.84375 -2.28125 C 5.976562 -2.675781 6.046875 -3.085938 6.046875 -3.515625 C 6.046875 -3.960938 5.976562 -4.375 5.84375 -4.75 C 5.71875 -5.132812 5.539062 -5.472656 5.3125 -5.765625 C 5.082031 -6.054688 4.8125 -6.28125 4.5 -6.4375 C 4.195312 -6.601562 3.867188 -6.6875 3.515625 -6.6875 C 3.171875 -6.6875 2.84375 -6.601562 2.53125 -6.4375 C 2.226562 -6.28125 1.957031 -6.054688 1.71875 -5.765625 C 1.488281 -5.472656 1.304688 -5.132812 1.171875 -4.75 C 1.046875 -4.375 0.984375 -3.960938 0.984375 -3.515625 C 0.984375 -3.085938 1.046875 -2.675781 1.171875 -2.28125 C 1.304688 -1.894531 1.488281 -1.550781 1.71875 -1.25 C 1.957031 -0.945312 2.226562 -0.710938 2.53125 -0.546875 C 2.84375 -0.378906 3.171875 -0.296875 3.515625 -0.296875 Z M 3.515625 -0.296875 "/></g></g></g><g fill="#e75480" fill-opacity="1"><g transform="translate(42.618931, 51.10583)"><g><path d="M 1.234375 -1.984375 C 1.234375 -1.648438 1.289062 -1.367188 1.40625 -1.140625 C 1.519531 -0.910156 1.671875 -0.722656 1.859375 -0.578125 C 2.054688 -0.441406 2.273438 -0.347656 2.515625 -0.296875 C 2.753906 -0.253906 3 -0.253906 3.25 -0.296875 C 3.5 -0.335938 3.738281 -0.425781 3.96875 -0.5625 C 4.195312 -0.707031 4.398438 -0.894531 4.578125 -1.125 C 4.765625 -1.351562 4.90625 -1.632812 5 -1.96875 C 4.9375 -1.550781 4.804688 -1.203125 4.609375 -0.921875 C 4.421875 -0.648438 4.1875 -0.4375 3.90625 -0.28125 C 3.632812 -0.132812 3.335938 -0.046875 3.015625 -0.015625 C 2.703125 0.015625 2.394531 0 2.09375 -0.0625 C 1.789062 -0.132812 1.515625 -0.25 1.265625 -0.40625 C 1.015625 -0.570312 0.8125 -0.773438 0.65625 -1.015625 C 0.507812 -1.253906 0.4375 -1.523438 0.4375 -1.828125 L 0.4375 -5.71875 C 0.4375 -5.976562 0.410156 -6.171875 0.359375 -6.296875 C 0.316406 -6.421875 0.269531 -6.5 0.21875 -6.53125 C 0.175781 -6.5625 0.15625 -6.578125 0.15625 -6.578125 L 1.234375 -7 C 1.234375 -7 1.234375 -6.976562 1.234375 -6.9375 C 1.234375 -6.90625 1.234375 -6.828125 1.234375 -6.703125 C 1.234375 -6.585938 1.234375 -6.398438 1.234375 -6.140625 C 1.234375 -6.140625 1.234375 -6.128906 1.234375 -6.109375 C 1.234375 -6.097656 1.234375 -6.050781 1.234375 -5.96875 C 1.234375 -5.894531 1.234375 -5.773438 1.234375 -5.609375 C 1.234375 -5.441406 1.234375 -5.207031 1.234375 -4.90625 C 1.234375 -4.601562 1.234375 -4.210938 1.234375 -3.734375 C 1.234375 -3.253906 1.234375 -2.671875 1.234375 -1.984375 Z M 4.765625 0 C 4.765625 0 4.785156 -0.015625 4.828125 -0.046875 C 4.878906 -0.0859375 4.925781 -0.171875 4.96875 -0.296875 C 5.019531 -0.421875 5.046875 -0.613281 5.046875 -0.875 L 5.046875 -5.671875 C 5.046875 -5.929688 5.019531 -6.125 4.96875 -6.25 C 4.925781 -6.382812 4.878906 -6.472656 4.828125 -6.515625 C 4.785156 -6.554688 4.765625 -6.578125 4.765625 -6.578125 L 5.828125 -7 L 5.84375 -0.859375 C 5.84375 -0.609375 5.863281 -0.421875 5.90625 -0.296875 C 5.945312 -0.171875 5.988281 -0.0859375 6.03125 -0.046875 C 6.082031 -0.015625 6.109375 0 6.109375 0 Z M 4.765625 0 "/></g></g></g><g fill="#e75480" fill-opacity="1"><g transform="translate(50.16282, 51.10583)"><g><path d="M 1.265625 -5.03125 C 1.273438 -5.394531 1.347656 -5.703125 1.484375 -5.953125 C 1.628906 -6.210938 1.8125 -6.421875 2.03125 -6.578125 C 2.257812 -6.742188 2.507812 -6.859375 2.78125 -6.921875 C 3.050781 -6.984375 3.320312 -7 3.59375 -6.96875 C 3.875 -6.9375 4.132812 -6.863281 4.375 -6.75 C 4.625 -6.632812 4.835938 -6.476562 5.015625 -6.28125 C 5.203125 -6.082031 5.332031 -5.84375 5.40625 -5.5625 L 4.703125 -5.390625 C 4.609375 -5.703125 4.46875 -5.953125 4.28125 -6.140625 C 4.101562 -6.328125 3.894531 -6.457031 3.65625 -6.53125 C 3.425781 -6.613281 3.179688 -6.640625 2.921875 -6.609375 C 2.671875 -6.585938 2.429688 -6.507812 2.203125 -6.375 C 1.972656 -6.238281 1.773438 -6.054688 1.609375 -5.828125 C 1.441406 -5.609375 1.328125 -5.34375 1.265625 -5.03125 Z M 0.15625 0 C 0.15625 0 0.175781 -0.015625 0.21875 -0.046875 C 0.269531 -0.0859375 0.316406 -0.171875 0.359375 -0.296875 C 0.410156 -0.421875 0.4375 -0.613281 0.4375 -0.875 L 0.4375 -5.671875 C 0.4375 -5.929688 0.410156 -6.125 0.359375 -6.25 C 0.316406 -6.382812 0.269531 -6.472656 0.21875 -6.515625 C 0.175781 -6.554688 0.15625 -6.578125 0.15625 -6.578125 L 1.234375 -7 L 1.234375 -0.859375 C 1.234375 -0.609375 1.253906 -0.421875 1.296875 -0.296875 C 1.347656 -0.171875 1.394531 -0.0859375 1.4375 -0.046875 C 1.476562 -0.015625 1.5 0 1.5 0 Z M 0.15625 0 "/></g></g></g><g fill="#e75480" fill-opacity="1"><g transform="translate(61.540886, 51.10583)"><g><path d="M 6.234375 -2.53125 C 6.234375 -2.832031 6.171875 -3.085938 6.046875 -3.296875 C 5.921875 -3.515625 5.75 -3.695312 5.53125 -3.84375 C 5.3125 -3.988281 5.0625 -4.113281 4.78125 -4.21875 C 4.507812 -4.332031 4.21875 -4.429688 3.90625 -4.515625 C 3.59375 -4.609375 3.28125 -4.703125 2.96875 -4.796875 C 2.65625 -4.898438 2.359375 -5.015625 2.078125 -5.140625 C 1.804688 -5.273438 1.5625 -5.4375 1.34375 -5.625 C 1.125 -5.8125 0.953125 -6.039062 0.828125 -6.3125 C 0.703125 -6.582031 0.640625 -6.90625 0.640625 -7.28125 C 0.640625 -7.34375 0.648438 -7.429688 0.671875 -7.546875 C 0.703125 -7.671875 0.753906 -7.8125 0.828125 -7.96875 C 0.898438 -8.125 1.003906 -8.285156 1.140625 -8.453125 C 1.285156 -8.617188 1.46875 -8.769531 1.6875 -8.90625 C 1.90625 -9.039062 2.175781 -9.148438 2.5 -9.234375 C 2.820312 -9.316406 3.195312 -9.359375 3.625 -9.359375 C 4.039062 -9.359375 4.421875 -9.320312 4.765625 -9.25 C 5.117188 -9.1875 5.425781 -9.109375 5.6875 -9.015625 C 5.957031 -8.921875 6.164062 -8.84375 6.3125 -8.78125 C 6.457031 -8.71875 6.53125 -8.6875 6.53125 -8.6875 L 6.28125 -7.25 C 6.28125 -7.25 6.265625 -7.289062 6.234375 -7.375 C 6.210938 -7.46875 6.164062 -7.582031 6.09375 -7.71875 C 6.019531 -7.863281 5.921875 -8.015625 5.796875 -8.171875 C 5.671875 -8.335938 5.503906 -8.488281 5.296875 -8.625 C 5.097656 -8.769531 4.851562 -8.890625 4.5625 -8.984375 C 4.269531 -9.078125 3.925781 -9.125 3.53125 -9.125 C 3.300781 -9.125 3.066406 -9.085938 2.828125 -9.015625 C 2.585938 -8.953125 2.363281 -8.851562 2.15625 -8.71875 C 1.945312 -8.582031 1.78125 -8.394531 1.65625 -8.15625 C 1.53125 -7.925781 1.46875 -7.632812 1.46875 -7.28125 C 1.46875 -6.988281 1.53125 -6.738281 1.65625 -6.53125 C 1.789062 -6.332031 1.96875 -6.160156 2.1875 -6.015625 C 2.414062 -5.867188 2.675781 -5.742188 2.96875 -5.640625 C 3.257812 -5.535156 3.566406 -5.4375 3.890625 -5.34375 C 4.210938 -5.257812 4.535156 -5.164062 4.859375 -5.0625 C 5.179688 -4.957031 5.488281 -4.84375 5.78125 -4.71875 C 6.070312 -4.59375 6.328125 -4.4375 6.546875 -4.25 C 6.773438 -4.0625 6.953125 -3.835938 7.078125 -3.578125 C 7.210938 -3.316406 7.28125 -3.003906 7.28125 -2.640625 C 7.28125 -2.015625 7.128906 -1.503906 6.828125 -1.109375 C 6.523438 -0.722656 6.097656 -0.441406 5.546875 -0.265625 C 4.992188 -0.0859375 4.335938 0 3.578125 0 C 3.117188 0 2.710938 -0.0390625 2.359375 -0.125 C 2.003906 -0.207031 1.695312 -0.3125 1.4375 -0.4375 C 1.1875 -0.570312 0.972656 -0.710938 0.796875 -0.859375 C 0.617188 -1.003906 0.476562 -1.140625 0.375 -1.265625 C 0.269531 -1.390625 0.195312 -1.488281 0.15625 -1.5625 L 0.71875 -2.46875 C 0.738281 -2.382812 0.789062 -2.253906 0.875 -2.078125 C 0.957031 -1.910156 1.070312 -1.71875 1.21875 -1.5 C 1.363281 -1.289062 1.546875 -1.085938 1.765625 -0.890625 C 1.984375 -0.703125 2.242188 -0.546875 2.546875 -0.421875 C 2.847656 -0.296875 3.191406 -0.234375 3.578125 -0.234375 C 4.179688 -0.234375 4.675781 -0.328125 5.0625 -0.515625 C 5.457031 -0.703125 5.75 -0.96875 5.9375 -1.3125 C 6.132812 -1.65625 6.234375 -2.0625 6.234375 -2.53125 Z M 6.234375 -2.53125 "/></g></g></g><g fill="#e75480" fill-opacity="1"><g transform="translate(70.260391, 51.10583)"><g><path d="M 0.828125 -8.765625 C 1.003906 -8.765625 1.15625 -8.695312 1.28125 -8.5625 C 1.414062 -8.4375 1.484375 -8.28125 1.484375 -8.09375 C 1.484375 -7.914062 1.414062 -7.765625 1.28125 -7.640625 C 1.15625 -7.515625 1.003906 -7.453125 0.828125 -7.453125 C 0.648438 -7.453125 0.492188 -7.515625 0.359375 -7.640625 C 0.222656 -7.765625 0.15625 -7.914062 0.15625 -8.09375 C 0.15625 -8.28125 0.222656 -8.4375 0.359375 -8.5625 C 0.492188 -8.695312 0.648438 -8.765625 0.828125 -8.765625 Z M 0.234375 0 C 0.234375 0 0.253906 -0.015625 0.296875 -0.046875 C 0.335938 -0.0859375 0.378906 -0.171875 0.421875 -0.296875 C 0.472656 -0.421875 0.5 -0.613281 0.5 -0.875 L 0.5 -5.671875 C 0.5 -5.929688 0.472656 -6.125 0.421875 -6.25 C 0.378906 -6.382812 0.335938 -6.472656 0.296875 -6.515625 C 0.253906 -6.554688 0.234375 -6.578125 0.234375 -6.578125 L 1.296875 -7 L 1.296875 -0.859375 C 1.296875 -0.609375 1.316406 -0.421875 1.359375 -0.296875 C 1.410156 -0.171875 1.457031 -0.0859375 1.5 -0.046875 C 1.539062 -0.015625 1.5625 0 1.5625 0 Z M 0.234375 0 "/></g></g></g><g fill="#e75480" fill-opacity="1"><g transform="translate(73.265105, 51.10583)"><g><path d="M 5.4375 -1.84375 C 5.4375 -2.09375 5.363281 -2.289062 5.21875 -2.4375 C 5.082031 -2.59375 4.894531 -2.71875 4.65625 -2.8125 C 4.425781 -2.914062 4.164062 -3 3.875 -3.0625 C 3.582031 -3.132812 3.28125 -3.203125 2.96875 -3.265625 C 2.664062 -3.328125 2.367188 -3.398438 2.078125 -3.484375 C 1.785156 -3.578125 1.519531 -3.695312 1.28125 -3.84375 C 1.050781 -3.988281 0.863281 -4.171875 0.71875 -4.390625 C 0.582031 -4.617188 0.515625 -4.894531 0.515625 -5.21875 C 0.515625 -5.269531 0.519531 -5.347656 0.53125 -5.453125 C 0.550781 -5.554688 0.585938 -5.671875 0.640625 -5.796875 C 0.703125 -5.929688 0.789062 -6.066406 0.90625 -6.203125 C 1.019531 -6.335938 1.175781 -6.460938 1.375 -6.578125 C 1.582031 -6.703125 1.835938 -6.800781 2.140625 -6.875 C 2.453125 -6.945312 2.828125 -6.984375 3.265625 -6.984375 C 3.671875 -6.984375 4.03125 -6.953125 4.34375 -6.890625 C 4.664062 -6.835938 4.9375 -6.769531 5.15625 -6.6875 C 5.382812 -6.613281 5.550781 -6.546875 5.65625 -6.484375 C 5.769531 -6.429688 5.828125 -6.40625 5.828125 -6.40625 L 5.578125 -5.328125 C 5.578125 -5.328125 5.570312 -5.359375 5.5625 -5.421875 C 5.550781 -5.492188 5.523438 -5.585938 5.484375 -5.703125 C 5.441406 -5.816406 5.367188 -5.9375 5.265625 -6.0625 C 5.160156 -6.1875 5.019531 -6.300781 4.84375 -6.40625 C 4.664062 -6.519531 4.4375 -6.613281 4.15625 -6.6875 C 3.882812 -6.757812 3.550781 -6.796875 3.15625 -6.796875 C 2.9375 -6.796875 2.71875 -6.757812 2.5 -6.6875 C 2.28125 -6.625 2.082031 -6.523438 1.90625 -6.390625 C 1.738281 -6.265625 1.601562 -6.101562 1.5 -5.90625 C 1.40625 -5.707031 1.359375 -5.484375 1.359375 -5.234375 C 1.359375 -4.984375 1.425781 -4.78125 1.5625 -4.625 C 1.707031 -4.46875 1.898438 -4.335938 2.140625 -4.234375 C 2.390625 -4.140625 2.664062 -4.054688 2.96875 -3.984375 C 3.269531 -3.921875 3.582031 -3.851562 3.90625 -3.78125 C 4.226562 -3.71875 4.539062 -3.644531 4.84375 -3.5625 C 5.15625 -3.476562 5.429688 -3.367188 5.671875 -3.234375 C 5.921875 -3.109375 6.113281 -2.941406 6.25 -2.734375 C 6.394531 -2.535156 6.46875 -2.285156 6.46875 -1.984375 C 6.46875 -1.597656 6.359375 -1.253906 6.140625 -0.953125 C 5.929688 -0.660156 5.59375 -0.425781 5.125 -0.25 C 4.65625 -0.0820312 4.039062 0 3.28125 0 C 2.820312 0 2.425781 -0.03125 2.09375 -0.09375 C 1.757812 -0.15625 1.476562 -0.234375 1.25 -0.328125 C 1.019531 -0.429688 0.832031 -0.535156 0.6875 -0.640625 C 0.539062 -0.742188 0.425781 -0.84375 0.34375 -0.9375 C 0.257812 -1.03125 0.195312 -1.101562 0.15625 -1.15625 L 0.71875 -1.828125 C 0.738281 -1.773438 0.78125 -1.679688 0.84375 -1.546875 C 0.90625 -1.421875 0.992188 -1.273438 1.109375 -1.109375 C 1.222656 -0.953125 1.375 -0.800781 1.5625 -0.65625 C 1.757812 -0.519531 2 -0.40625 2.28125 -0.3125 C 2.5625 -0.21875 2.898438 -0.171875 3.296875 -0.171875 C 3.648438 -0.171875 3.953125 -0.207031 4.203125 -0.28125 C 4.460938 -0.363281 4.671875 -0.46875 4.828125 -0.59375 C 4.984375 -0.726562 5.109375 -0.867188 5.203125 -1.015625 C 5.296875 -1.171875 5.359375 -1.320312 5.390625 -1.46875 C 5.421875 -1.613281 5.4375 -1.738281 5.4375 -1.84375 Z M 5.4375 -1.84375 "/></g></g></g><g fill="#e75480" fill-opacity="1"><g transform="translate(81.174744, 51.10583)"><g><path d="M 1.90625 -6.984375 L 3.046875 -6.984375 L 3.046875 -6.765625 L 1.90625 -6.765625 L 1.90625 -1.015625 C 1.90625 -0.835938 1.941406 -0.707031 2.015625 -0.625 C 2.085938 -0.539062 2.175781 -0.492188 2.28125 -0.484375 C 2.382812 -0.472656 2.476562 -0.488281 2.5625 -0.53125 C 2.65625 -0.570312 2.71875 -0.628906 2.75 -0.703125 C 2.75 -0.492188 2.671875 -0.320312 2.515625 -0.1875 C 2.359375 -0.0625 2.175781 0 1.96875 0 C 1.914062 0 1.84375 -0.0078125 1.75 -0.03125 C 1.65625 -0.0625 1.554688 -0.109375 1.453125 -0.171875 C 1.359375 -0.242188 1.273438 -0.347656 1.203125 -0.484375 C 1.140625 -0.617188 1.109375 -0.800781 1.109375 -1.03125 C 1.109375 -2.519531 1.109375 -3.734375 1.109375 -4.671875 C 1.109375 -5.609375 1.109375 -6.304688 1.109375 -6.765625 L 0.15625 -6.765625 L 0.15625 -6.984375 L 1.109375 -6.984375 C 1.109375 -7.160156 1.109375 -7.289062 1.109375 -7.375 C 1.109375 -7.457031 1.109375 -7.5 1.109375 -7.5 C 1.109375 -7.757812 1.082031 -7.953125 1.03125 -8.078125 C 0.988281 -8.210938 0.945312 -8.300781 0.90625 -8.34375 C 0.863281 -8.382812 0.84375 -8.40625 0.84375 -8.40625 L 1.90625 -8.828125 Z M 1.90625 -6.984375 "/></g></g></g><g fill="#e75480" fill-opacity="1"><g transform="translate(85.655505, 51.10583)"><g><path d="M 0.984375 -3.65625 C 0.992188 -3.125 1.070312 -2.664062 1.21875 -2.28125 C 1.363281 -1.90625 1.5625 -1.585938 1.8125 -1.328125 C 2.0625 -1.066406 2.34375 -0.863281 2.65625 -0.71875 C 2.96875 -0.582031 3.289062 -0.492188 3.625 -0.453125 C 3.96875 -0.421875 4.300781 -0.429688 4.625 -0.484375 C 4.945312 -0.546875 5.242188 -0.644531 5.515625 -0.78125 C 5.796875 -0.925781 6.023438 -1.097656 6.203125 -1.296875 C 6.390625 -1.503906 6.515625 -1.742188 6.578125 -2.015625 C 6.546875 -1.753906 6.453125 -1.503906 6.296875 -1.265625 C 6.148438 -1.023438 5.953125 -0.804688 5.703125 -0.609375 C 5.460938 -0.421875 5.179688 -0.269531 4.859375 -0.15625 C 4.535156 -0.0507812 4.191406 0 3.828125 0 C 3.265625 0 2.757812 -0.09375 2.3125 -0.28125 C 1.863281 -0.476562 1.476562 -0.742188 1.15625 -1.078125 C 0.832031 -1.421875 0.582031 -1.804688 0.40625 -2.234375 C 0.238281 -2.671875 0.15625 -3.132812 0.15625 -3.625 C 0.15625 -4.101562 0.242188 -4.546875 0.421875 -4.953125 C 0.609375 -5.367188 0.859375 -5.726562 1.171875 -6.03125 C 1.492188 -6.332031 1.859375 -6.566406 2.265625 -6.734375 C 2.679688 -6.898438 3.117188 -6.984375 3.578125 -6.984375 C 4.046875 -6.984375 4.472656 -6.921875 4.859375 -6.796875 C 5.253906 -6.679688 5.59375 -6.492188 5.875 -6.234375 C 6.15625 -5.984375 6.375 -5.648438 6.53125 -5.234375 C 6.695312 -4.828125 6.78125 -4.328125 6.78125 -3.734375 L 0.984375 -3.734375 Z M 3.578125 -6.6875 C 3.253906 -6.6875 2.941406 -6.617188 2.640625 -6.484375 C 2.335938 -6.347656 2.066406 -6.15625 1.828125 -5.90625 C 1.585938 -5.664062 1.394531 -5.378906 1.25 -5.046875 C 1.101562 -4.710938 1.019531 -4.34375 1 -3.9375 L 6.03125 -3.9375 C 6.03125 -4.332031 5.984375 -4.695312 5.890625 -5.03125 C 5.796875 -5.363281 5.648438 -5.648438 5.453125 -5.890625 C 5.253906 -6.140625 5 -6.332031 4.6875 -6.46875 C 4.375 -6.613281 4.003906 -6.6875 3.578125 -6.6875 Z M 3.578125 -6.6875 "/></g></g></g><g fill="#e75480" fill-opacity="1"><g transform="translate(93.872107, 51.10583)"><g><path d="M 1.265625 -5.03125 C 1.273438 -5.394531 1.347656 -5.703125 1.484375 -5.953125 C 1.628906 -6.210938 1.8125 -6.421875 2.03125 -6.578125 C 2.257812 -6.742188 2.507812 -6.859375 2.78125 -6.921875 C 3.050781 -6.984375 3.320312 -7 3.59375 -6.96875 C 3.875 -6.9375 4.132812 -6.863281 4.375 -6.75 C 4.625 -6.632812 4.835938 -6.476562 5.015625 -6.28125 C 5.203125 -6.082031 5.332031 -5.84375 5.40625 -5.5625 L 4.703125 -5.390625 C 4.609375 -5.703125 4.46875 -5.953125 4.28125 -6.140625 C 4.101562 -6.328125 3.894531 -6.457031 3.65625 -6.53125 C 3.425781 -6.613281 3.179688 -6.640625 2.921875 -6.609375 C 2.671875 -6.585938 2.429688 -6.507812 2.203125 -6.375 C 1.972656 -6.238281 1.773438 -6.054688 1.609375 -5.828125 C 1.441406 -5.609375 1.328125 -5.34375 1.265625 -5.03125 Z M 0.15625 0 C 0.15625 0 0.175781 -0.015625 0.21875 -0.046875 C 0.269531 -0.0859375 0.316406 -0.171875 0.359375 -0.296875 C 0.410156 -0.421875 0.4375 -0.613281 0.4375 -0.875 L 0.4375 -5.671875 C 0.4375 -5.929688 0.410156 -6.125 0.359375 -6.25 C 0.316406 -6.382812 0.269531 -6.472656 0.21875 -6.515625 C 0.175781 -6.554688 0.15625 -6.578125 0.15625 -6.578125 L 1.234375 -7 L 1.234375 -0.859375 C 1.234375 -0.609375 1.253906 -0.421875 1.296875 -0.296875 C 1.347656 -0.171875 1.394531 -0.0859375 1.4375 -0.046875 C 1.476562 -0.015625 1.5 0 1.5 0 Z M 0.15625 0 "/></g></g></g><g fill="#e75480" fill-opacity="1"><g transform="translate(100.710629, 51.10583)"><g><path d="M 5.4375 -1.84375 C 5.4375 -2.09375 5.363281 -2.289062 5.21875 -2.4375 C 5.082031 -2.59375 4.894531 -2.71875 4.65625 -2.8125 C 4.425781 -2.914062 4.164062 -3 3.875 -3.0625 C 3.582031 -3.132812 3.28125 -3.203125 2.96875 -3.265625 C 2.664062 -3.328125 2.367188 -3.398438 2.078125 -3.484375 C 1.785156 -3.578125 1.519531 -3.695312 1.28125 -3.84375 C 1.050781 -3.988281 0.863281 -4.171875 0.71875 -4.390625 C 0.582031 -4.617188 0.515625 -4.894531 0.515625 -5.21875 C 0.515625 -5.269531 0.519531 -5.347656 0.53125 -5.453125 C 0.550781 -5.554688 0.585938 -5.671875 0.640625 -5.796875 C 0.703125 -5.929688 0.789062 -6.066406 0.90625 -6.203125 C 1.019531 -6.335938 1.175781 -6.460938 1.375 -6.578125 C 1.582031 -6.703125 1.835938 -6.800781 2.140625 -6.875 C 2.453125 -6.945312 2.828125 -6.984375 3.265625 -6.984375 C 3.671875 -6.984375 4.03125 -6.953125 4.34375 -6.890625 C 4.664062 -6.835938 4.9375 -6.769531 5.15625 -6.6875 C 5.382812 -6.613281 5.550781 -6.546875 5.65625 -6.484375 C 5.769531 -6.429688 5.828125 -6.40625 5.828125 -6.40625 L 5.578125 -5.328125 C 5.578125 -5.328125 5.570312 -5.359375 5.5625 -5.421875 C 5.550781 -5.492188 5.523438 -5.585938 5.484375 -5.703125 C 5.441406 -5.816406 5.367188 -5.9375 5.265625 -6.0625 C 5.160156 -6.1875 5.019531 -6.300781 4.84375 -6.40625 C 4.664062 -6.519531 4.4375 -6.613281 4.15625 -6.6875 C 3.882812 -6.757812 3.550781 -6.796875 3.15625 -6.796875 C 2.9375 -6.796875 2.71875 -6.757812 2.5 -6.6875 C 2.28125 -6.625 2.082031 -6.523438 1.90625 -6.390625 C 1.738281 -6.265625 1.601562 -6.101562 1.5 -5.90625 C 1.40625 -5.707031 1.359375 -5.484375 1.359375 -5.234375 C 1.359375 -4.984375 1.425781 -4.78125 1.5625 -4.625 C 1.707031 -4.46875 1.898438 -4.335938 2.140625 -4.234375 C 2.390625 -4.140625 2.664062 -4.054688 2.96875 -3.984375 C 3.269531 -3.921875 3.582031 -3.851562 3.90625 -3.78125 C 4.226562 -3.71875 4.539062 -3.644531 4.84375 -3.5625 C 5.15625 -3.476562 5.429688 -3.367188 5.671875 -3.234375 C 5.921875 -3.109375 6.113281 -2.941406 6.25 -2.734375 C 6.394531 -2.535156 6.46875 -2.285156 6.46875 -1.984375 C 6.46875 -1.597656 6.359375 -1.253906 6.140625 -0.953125 C 5.929688 -0.660156 5.59375 -0.425781 5.125 -0.25 C 4.65625 -0.0820312 4.039062 0 3.28125 0 C 2.820312 0 2.425781 -0.03125 2.09375 -0.09375 C 1.757812 -0.15625 1.476562 -0.234375 1.25 -0.328125 C 1.019531 -0.429688 0.832031 -0.535156 0.6875 -0.640625 C 0.539062 -0.742188 0.425781 -0.84375 0.34375 -0.9375 C 0.257812 -1.03125 0.195312 -1.101562 0.15625 -1.15625 L 0.71875 -1.828125 C 0.738281 -1.773438 0.78125 -1.679688 0.84375 -1.546875 C 0.90625 -1.421875 0.992188 -1.273438 1.109375 -1.109375 C 1.222656 -0.953125 1.375 -0.800781 1.5625 -0.65625 C 1.757812 -0.519531 2 -0.40625 2.28125 -0.3125 C 2.5625 -0.21875 2.898438 -0.171875 3.296875 -0.171875 C 3.648438 -0.171875 3.953125 -0.207031 4.203125 -0.28125 C 4.460938 -0.363281 4.671875 -0.46875 4.828125 -0.59375 C 4.984375 -0.726562 5.109375 -0.867188 5.203125 -1.015625 C 5.296875 -1.171875 5.359375 -1.320312 5.390625 -1.46875 C 5.421875 -1.613281 5.4375 -1.738281 5.4375 -1.84375 Z M 5.4375 -1.84375 "/></g></g></g><g fill="#8a5d3b" fill-opacity="1"><g transform="translate(49.245276, 60.078733)"><g><path d="M 4.484375 -1.328125 C 4.316406 -0.910156 4.050781 -0.578125 3.6875 -0.328125 C 3.3125 -0.0664062 2.898438 0.0625 2.453125 0.0625 C 1.859375 0.0625 1.347656 -0.160156 0.921875 -0.609375 C 0.492188 -1.035156 0.28125 -1.554688 0.28125 -2.171875 C 0.28125 -2.472656 0.335938 -2.757812 0.453125 -3.03125 C 0.566406 -3.300781 0.722656 -3.539062 0.921875 -3.75 C 1.347656 -4.1875 1.859375 -4.40625 2.453125 -4.40625 C 2.898438 -4.40625 3.304688 -4.28125 3.671875 -4.03125 C 4.046875 -3.78125 4.3125 -3.445312 4.46875 -3.03125 L 3.984375 -3.03125 C 3.742188 -3.457031 3.390625 -3.742188 2.921875 -3.890625 C 2.773438 -3.929688 2.597656 -3.953125 2.390625 -3.953125 C 2.191406 -3.953125 1.988281 -3.90625 1.78125 -3.8125 C 1.570312 -3.71875 1.390625 -3.585938 1.234375 -3.421875 C 0.898438 -3.078125 0.734375 -2.660156 0.734375 -2.171875 C 0.734375 -1.691406 0.898438 -1.273438 1.234375 -0.921875 C 1.578125 -0.566406 1.984375 -0.390625 2.453125 -0.390625 C 2.785156 -0.390625 3.085938 -0.476562 3.359375 -0.65625 C 3.628906 -0.820312 3.835938 -1.046875 3.984375 -1.328125 Z M 4.484375 -1.328125 "/></g></g></g><g fill="#8a5d3b" fill-opacity="1"><g transform="translate(53.925783, 60.078733)"><g><path d="M 2.78125 -1.421875 C 2.78125 -1.703125 2.679688 -1.941406 2.484375 -2.140625 C 2.285156 -2.347656 2.046875 -2.453125 1.765625 -2.453125 C 1.484375 -2.453125 1.238281 -2.347656 1.03125 -2.140625 C 0.832031 -1.941406 0.734375 -1.703125 0.734375 -1.421875 C 0.734375 -1.140625 0.832031 -0.898438 1.03125 -0.703125 C 1.238281 -0.503906 1.484375 -0.40625 1.765625 -0.40625 C 2.046875 -0.40625 2.285156 -0.503906 2.484375 -0.703125 C 2.679688 -0.898438 2.78125 -1.140625 2.78125 -1.421875 Z M 3.234375 -1.421875 C 3.234375 -1.015625 3.09375 -0.671875 2.8125 -0.390625 C 2.507812 -0.0976562 2.160156 0.046875 1.765625 0.046875 C 1.359375 0.046875 1.007812 -0.0976562 0.71875 -0.390625 C 0.425781 -0.671875 0.28125 -1.015625 0.28125 -1.421875 C 0.28125 -1.828125 0.425781 -2.175781 0.71875 -2.46875 C 1.007812 -2.75 1.359375 -2.890625 1.765625 -2.890625 C 2.171875 -2.890625 2.519531 -2.75 2.8125 -2.46875 C 3.09375 -2.175781 3.234375 -1.828125 3.234375 -1.421875 Z M 3.234375 -1.421875 "/></g></g></g><g fill="#8a5d3b" fill-opacity="1"><g transform="translate(57.458602, 60.078733)"><g><path d="M 2 -4.390625 L 1.609375 -4.390625 C 1.460938 -4.390625 1.363281 -4.351562 1.3125 -4.28125 C 1.269531 -4.21875 1.25 -4.132812 1.25 -4.03125 L 1.25 -2.8125 L 2 -2.8125 L 2 -2.40625 L 1.25 -2.40625 L 1.25 0 L 0.796875 0 L 0.796875 -2.40625 L 0.21875 -2.40625 L 0.21875 -2.8125 L 0.796875 -2.8125 L 0.796875 -3.90625 C 0.796875 -4.195312 0.863281 -4.421875 1 -4.578125 C 1.132812 -4.734375 1.359375 -4.8125 1.671875 -4.8125 L 2 -4.8125 Z M 2 -4.390625 "/></g></g></g><g fill="#8a5d3b" fill-opacity="1"><g transform="translate(59.651388, 60.078733)"><g><path d="M 2 -4.390625 L 1.609375 -4.390625 C 1.460938 -4.390625 1.363281 -4.351562 1.3125 -4.28125 C 1.269531 -4.21875 1.25 -4.132812 1.25 -4.03125 L 1.25 -2.8125 L 2 -2.8125 L 2 -2.40625 L 1.25 -2.40625 L 1.25 0 L 0.796875 0 L 0.796875 -2.40625 L 0.21875 -2.40625 L 0.21875 -2.8125 L 0.796875 -2.8125 L 0.796875 -3.90625 C 0.796875 -4.195312 0.863281 -4.421875 1 -4.578125 C 1.132812 -4.734375 1.359375 -4.8125 1.671875 -4.8125 L 2 -4.8125 Z M 2 -4.390625 "/></g></g></g><g fill="#8a5d3b" fill-opacity="1"><g transform="translate(61.844174, 60.078733)"><g><path d="M 3.234375 -1.46875 L 3.234375 -1.234375 L 0.75 -1.234375 C 0.789062 -0.992188 0.910156 -0.796875 1.109375 -0.640625 C 1.304688 -0.484375 1.523438 -0.40625 1.765625 -0.40625 C 1.921875 -0.40625 2.078125 -0.441406 2.234375 -0.515625 C 2.378906 -0.585938 2.5 -0.691406 2.59375 -0.828125 L 3.109375 -0.828125 C 2.984375 -0.554688 2.800781 -0.34375 2.5625 -0.1875 C 2.320312 -0.03125 2.078125 0.046875 1.828125 0.046875 C 1.578125 0.046875 1.363281 0.00390625 1.1875 -0.078125 C 1.007812 -0.148438 0.851562 -0.253906 0.71875 -0.390625 C 0.425781 -0.671875 0.28125 -1.015625 0.28125 -1.421875 C 0.28125 -1.828125 0.425781 -2.175781 0.71875 -2.46875 C 1.007812 -2.75 1.359375 -2.890625 1.765625 -2.890625 C 2.148438 -2.890625 2.492188 -2.753906 2.796875 -2.484375 C 3.085938 -2.203125 3.234375 -1.863281 3.234375 -1.46875 Z M 2.765625 -1.625 C 2.710938 -1.863281 2.59375 -2.0625 2.40625 -2.21875 C 2.21875 -2.375 2.003906 -2.453125 1.765625 -2.453125 C 1.390625 -2.453125 1.097656 -2.285156 0.890625 -1.953125 C 0.828125 -1.847656 0.785156 -1.738281 0.765625 -1.625 Z M 2.765625 -1.625 "/></g></g></g><g fill="#8a5d3b" fill-opacity="1"><g transform="translate(65.344937, 60.078733)"><g><path d="M 3.234375 -1.46875 L 3.234375 -1.234375 L 0.75 -1.234375 C 0.789062 -0.992188 0.910156 -0.796875 1.109375 -0.640625 C 1.304688 -0.484375 1.523438 -0.40625 1.765625 -0.40625 C 1.921875 -0.40625 2.078125 -0.441406 2.234375 -0.515625 C 2.378906 -0.585938 2.5 -0.691406 2.59375 -0.828125 L 3.109375 -0.828125 C 2.984375 -0.554688 2.800781 -0.34375 2.5625 -0.1875 C 2.320312 -0.03125 2.078125 0.046875 1.828125 0.046875 C 1.578125 0.046875 1.363281 0.00390625 1.1875 -0.078125 C 1.007812 -0.148438 0.851562 -0.253906 0.71875 -0.390625 C 0.425781 -0.671875 0.28125 -1.015625 0.28125 -1.421875 C 0.28125 -1.828125 0.425781 -2.175781 0.71875 -2.46875 C 1.007812 -2.75 1.359375 -2.890625 1.765625 -2.890625 C 2.148438 -2.890625 2.492188 -2.753906 2.796875 -2.484375 C 3.085938 -2.203125 3.234375 -1.863281 3.234375 -1.46875 Z M 2.765625 -1.625 C 2.710938 -1.863281 2.59375 -2.0625 2.40625 -2.21875 C 2.21875 -2.375 2.003906 -2.453125 1.765625 -2.453125 C 1.390625 -2.453125 1.097656 -2.285156 0.890625 -1.953125 C 0.828125 -1.847656 0.785156 -1.738281 0.765625 -1.625 Z M 2.765625 -1.625 "/></g></g></g><g fill="#8a5d3b" fill-opacity="1"><g transform="translate(68.8457, 60.078733)"><g/></g></g><g fill="#8a5d3b" fill-opacity="1"><g transform="translate(70.58326, 60.078733)"><g><path d="M 4.484375 -1.328125 C 4.316406 -0.910156 4.050781 -0.578125 3.6875 -0.328125 C 3.3125 -0.0664062 2.898438 0.0625 2.453125 0.0625 C 1.859375 0.0625 1.347656 -0.160156 0.921875 -0.609375 C 0.492188 -1.035156 0.28125 -1.554688 0.28125 -2.171875 C 0.28125 -2.472656 0.335938 -2.757812 0.453125 -3.03125 C 0.566406 -3.300781 0.722656 -3.539062 0.921875 -3.75 C 1.347656 -4.1875 1.859375 -4.40625 2.453125 -4.40625 C 2.898438 -4.40625 3.304688 -4.28125 3.671875 -4.03125 C 4.046875 -3.78125 4.3125 -3.445312 4.46875 -3.03125 L 3.984375 -3.03125 C 3.742188 -3.457031 3.390625 -3.742188 2.921875 -3.890625 C 2.773438 -3.929688 2.597656 -3.953125 2.390625 -3.953125 C 2.191406 -3.953125 1.988281 -3.90625 1.78125 -3.8125 C 1.570312 -3.71875 1.390625 -3.585938 1.234375 -3.421875 C 0.898438 -3.078125 0.734375 -2.660156 0.734375 -2.171875 C 0.734375 -1.691406 0.898438 -1.273438 1.234375 -0.921875 C 1.578125 -0.566406 1.984375 -0.390625 2.453125 -0.390625 C 2.785156 -0.390625 3.085938 -0.476562 3.359375 -0.65625 C 3.628906 -0.820312 3.835938 -1.046875 3.984375 -1.328125 Z M 4.484375 -1.328125 "/></g></g></g><g fill="#8a5d3b" fill-opacity="1"><g transform="translate(75.263767, 60.078733)"><g><path d="M 2.78125 -1.421875 C 2.78125 -1.703125 2.679688 -1.941406 2.484375 -2.140625 C 2.285156 -2.347656 2.046875 -2.453125 1.765625 -2.453125 C 1.484375 -2.453125 1.238281 -2.347656 1.03125 -2.140625 C 0.832031 -1.941406 0.734375 -1.703125 0.734375 -1.421875 C 0.734375 -1.140625 0.832031 -0.898438 1.03125 -0.703125 C 1.238281 -0.503906 1.484375 -0.40625 1.765625 -0.40625 C 2.046875 -0.40625 2.285156 -0.503906 2.484375 -0.703125 C 2.679688 -0.898438 2.78125 -1.140625 2.78125 -1.421875 Z M 3.234375 -1.421875 C 3.234375 -1.015625 3.09375 -0.671875 2.8125 -0.390625 C 2.507812 -0.0976562 2.160156 0.046875 1.765625 0.046875 C 1.359375 0.046875 1.007812 -0.0976562 0.71875 -0.390625 C 0.425781 -0.671875 0.28125 -1.015625 0.28125 -1.421875 C 0.28125 -1.828125 0.425781 -2.175781 0.71875 -2.46875 C 1.007812 -2.75 1.359375 -2.890625 1.765625 -2.890625 C 2.171875 -2.890625 2.519531 -2.75 2.8125 -2.46875 C 3.09375 -2.175781 3.234375 -1.828125 3.234375 -1.421875 Z M 3.234375 -1.421875 "/></g></g></g><g fill="#8a5d3b" fill-opacity="1"><g transform="translate(78.796586, 60.078733)"><g><path d="M 0.859375 0.0625 C 0.753906 0.0625 0.664062 0.0234375 0.59375 -0.046875 C 0.519531 -0.109375 0.484375 -0.191406 0.484375 -0.296875 C 0.484375 -0.390625 0.519531 -0.472656 0.59375 -0.546875 C 0.664062 -0.617188 0.753906 -0.65625 0.859375 -0.65625 C 0.953125 -0.65625 1.039062 -0.625 1.125 -0.5625 C 1.195312 -0.488281 1.234375 -0.398438 1.234375 -0.296875 C 1.234375 -0.191406 1.191406 -0.109375 1.109375 -0.046875 C 1.035156 0.0234375 0.953125 0.0625 0.859375 0.0625 Z M 0.859375 0.0625 "/></g></g></g><g fill="#8a5d3b" fill-opacity="1"><g transform="translate(80.517111, 60.078733)"><g/></g></g></svg>