<svg xmlns="http://www.w3.org/2000/svg" xmlns:xlink="http://www.w3.org/1999/xlink" width="500" zoomAndPan="magnify" viewBox="0 0 375 374.999991" height="500" preserveAspectRatio="xMidYMid meet" version="1.0"><defs><g/><clipPath id="d1f1b8912f"><path d="M 166.917969 120.542969 L 188 120.542969 L 188 171 L 166.917969 171 Z M 166.917969 120.542969 " clip-rule="nonzero"/></clipPath><clipPath id="9e6d1157c9"><path d="M 183.632812 120.554688 L 202.765625 120.554688 L 202.765625 171.898438 L 183.632812 171.898438 Z M 183.632812 120.554688 " clip-rule="nonzero"/></clipPath></defs><path fill="#c3996b" d="M 176.859375 170.960938 C 174.128906 169.488281 171.738281 166.746094 170.089844 163.1875 C 168.15625 159.003906 167.324219 154.046875 167.691406 148.851562 C 168.089844 143.207031 169.902344 137.914062 172.792969 133.949219 C 174.855469 131.121094 177.300781 129.15625 179.929688 128.207031 C 178.933594 131.53125 178.1875 136.664062 179.285156 143.773438 C 179.527344 145.324219 179.824219 146.933594 180.109375 148.488281 C 180.941406 152.988281 181.796875 157.640625 181.457031 161.722656 C 181.113281 165.78125 179.652344 168.726562 176.859375 170.960938 " fill-opacity="1" fill-rule="nonzero"/><path fill="#c3996b" d="M 190.074219 167.65625 C 192.488281 163.40625 193.988281 156.730469 190.917969 146.726562 C 190.101562 144.066406 188.929688 139.183594 188.308594 134.1875 C 187.753906 129.71875 187.757812 126.171875 188.316406 123.863281 C 191.753906 124.902344 194.789062 127.703125 196.925781 131.820312 C 199.242188 136.292969 200.296875 141.933594 199.890625 147.699219 C 199.476562 153.539062 197.605469 159.023438 194.621094 163.140625 C 193.269531 165.007812 191.726562 166.535156 190.074219 167.65625 " fill-opacity="1" fill-rule="nonzero"/><g clip-path="url(#d1f1b8912f)"><path fill="#8a5d3b" d="M 185.203125 158.226562 C 185.140625 162.75 183.679688 166.113281 180.617188 168.773438 C 177.417969 167.472656 174.523438 164.683594 172.414062 160.855469 C 170.085938 156.632812 168.855469 151.527344 168.855469 146.097656 C 168.855469 140.195312 170.355469 134.550781 173.082031 130.195312 C 175.359375 126.5625 178.324219 124.089844 181.558594 123.085938 C 180.515625 126.6875 179.925781 132.214844 181.6875 139.949219 C 182.042969 141.503906 182.457031 143.113281 182.859375 144.667969 C 184.039062 149.234375 185.257812 153.953125 185.203125 158.226562 Z M 184.734375 144.1875 C 184.335938 142.644531 183.921875 141.050781 183.574219 139.523438 C 181.519531 130.496094 182.910156 124.734375 183.921875 122.105469 L 184.519531 120.554688 L 182.871094 120.808594 C 173.777344 122.214844 166.917969 133.085938 166.917969 146.097656 C 166.917969 157.8125 172.496094 167.964844 180.480469 170.78125 L 180.992188 170.960938 L 181.414062 170.621094 C 185.191406 167.566406 187.066406 163.519531 187.136719 158.25 C 187.199219 153.722656 185.945312 148.878906 184.734375 144.1875 " fill-opacity="1" fill-rule="nonzero"/></g><g clip-path="url(#9e6d1157c9)"><path fill="#8a5d3b" d="M 189.820312 168.441406 C 192.714844 164.367188 194.964844 157.292969 190.617188 146.011719 C 189.625 143.433594 188.121094 138.6875 187.160156 133.792969 C 186.195312 128.898438 186.007812 125.101562 186.597656 122.726562 C 194.640625 124.019531 200.835938 134.074219 200.835938 146.097656 C 200.835938 151.972656 199.34375 157.601562 196.640625 161.945312 C 194.761719 164.960938 192.40625 167.1875 189.820312 168.441406 Z M 197.992188 128.78125 C 194.859375 123.988281 190.601562 121.121094 185.996094 120.710938 L 185.257812 120.644531 L 185 121.335938 C 182.796875 127.3125 186.617188 141.007812 188.808594 146.699219 C 193.933594 159.992188 189.328125 166.816406 186.128906 169.703125 L 183.695312 171.898438 L 186.9375 171.367188 C 195.960938 169.886719 202.769531 159.023438 202.769531 146.097656 C 202.769531 139.644531 201.074219 133.492188 197.992188 128.78125 " fill-opacity="1" fill-rule="nonzero"/></g><g fill="#e75480" fill-opacity="1"><g transform="translate(99.745904, 202.775565)"><g><path d="M 7.875 -9.90625 C 7.875 -9.90625 7.828125 -9.976562 7.734375 -10.125 C 7.640625 -10.269531 7.46875 -10.4375 7.21875 -10.625 C 6.976562 -10.8125 6.632812 -10.976562 6.1875 -11.125 C 5.738281 -11.269531 5.160156 -11.34375 4.453125 -11.34375 L 2.671875 -11.34375 L 2.671875 -1.984375 C 2.671875 -1.421875 2.71875 -1 2.8125 -0.71875 C 2.914062 -0.4375 3.015625 -0.25 3.109375 -0.15625 C 3.203125 -0.0625 3.25 -0.015625 3.25 -0.015625 L 0.359375 -0.015625 C 0.359375 -0.015625 0.40625 -0.0625 0.5 -0.15625 C 0.601562 -0.25 0.703125 -0.4375 0.796875 -0.71875 C 0.898438 -1 0.953125 -1.421875 0.953125 -1.984375 L 0.953125 -18.421875 C 0.953125 -18.984375 0.898438 -19.394531 0.796875 -19.65625 C 0.703125 -19.925781 0.601562 -20.097656 0.5 -20.171875 C 0.40625 -20.253906 0.359375 -20.296875 0.359375 -20.296875 L 13.140625 -20.296875 L 13.71875 -17.59375 C 13.71875 -17.59375 13.671875 -17.664062 13.578125 -17.8125 C 13.484375 -17.957031 13.296875 -18.132812 13.015625 -18.34375 C 12.734375 -18.5625 12.320312 -18.773438 11.78125 -18.984375 C 11.238281 -19.191406 10.519531 -19.367188 9.625 -19.515625 C 8.738281 -19.660156 7.632812 -19.734375 6.3125 -19.734375 L 2.84375 -19.734375 C 2.800781 -19.597656 2.757812 -19.421875 2.71875 -19.203125 C 2.6875 -18.992188 2.671875 -18.738281 2.671875 -18.4375 L 2.671875 -11.828125 L 4.453125 -11.828125 C 5.160156 -11.828125 5.738281 -11.898438 6.1875 -12.046875 C 6.632812 -12.191406 6.976562 -12.351562 7.21875 -12.53125 C 7.46875 -12.71875 7.640625 -12.882812 7.734375 -13.03125 C 7.828125 -13.175781 7.875 -13.25 7.875 -13.25 Z M 7.875 -9.90625 "/></g></g></g><g fill="#e75480" fill-opacity="1"><g transform="translate(116.584892, 202.775565)"><g><path d="M 7.625 -15.140625 C 8.632812 -15.140625 9.578125 -14.941406 10.453125 -14.546875 C 11.335938 -14.148438 12.113281 -13.601562 12.78125 -12.90625 C 13.445312 -12.21875 13.96875 -11.414062 14.34375 -10.5 C 14.71875 -9.582031 14.90625 -8.601562 14.90625 -7.5625 C 14.90625 -6.507812 14.71875 -5.523438 14.34375 -4.609375 C 13.96875 -3.691406 13.445312 -2.882812 12.78125 -2.1875 C 12.113281 -1.5 11.335938 -0.957031 10.453125 -0.5625 C 9.578125 -0.175781 8.632812 0.015625 7.625 0.015625 C 6.625 0.015625 5.679688 -0.175781 4.796875 -0.5625 C 3.921875 -0.957031 3.148438 -1.5 2.484375 -2.1875 C 1.816406 -2.882812 1.296875 -3.691406 0.921875 -4.609375 C 0.546875 -5.523438 0.359375 -6.507812 0.359375 -7.5625 C 0.359375 -8.601562 0.546875 -9.582031 0.921875 -10.5 C 1.296875 -11.414062 1.816406 -12.21875 2.484375 -12.90625 C 3.148438 -13.601562 3.921875 -14.148438 4.796875 -14.546875 C 5.679688 -14.941406 6.625 -15.140625 7.625 -15.140625 Z M 7.625 -0.640625 C 8.382812 -0.640625 9.097656 -0.820312 9.765625 -1.1875 C 10.429688 -1.550781 11.015625 -2.054688 11.515625 -2.703125 C 12.023438 -3.359375 12.421875 -4.109375 12.703125 -4.953125 C 12.984375 -5.796875 13.125 -6.6875 13.125 -7.625 C 13.125 -8.582031 12.984375 -9.472656 12.703125 -10.296875 C 12.421875 -11.117188 12.023438 -11.847656 11.515625 -12.484375 C 11.015625 -13.117188 10.429688 -13.613281 9.765625 -13.96875 C 9.097656 -14.320312 8.382812 -14.5 7.625 -14.5 C 6.875 -14.5 6.164062 -14.320312 5.5 -13.96875 C 4.832031 -13.613281 4.242188 -13.117188 3.734375 -12.484375 C 3.234375 -11.847656 2.84375 -11.117188 2.5625 -10.296875 C 2.28125 -9.472656 2.140625 -8.582031 2.140625 -7.625 C 2.140625 -6.6875 2.28125 -5.796875 2.5625 -4.953125 C 2.84375 -4.109375 3.234375 -3.359375 3.734375 -2.703125 C 4.242188 -2.054688 4.832031 -1.550781 5.5 -1.1875 C 6.164062 -0.820312 6.875 -0.640625 7.625 -0.640625 Z M 7.625 -0.640625 "/></g></g></g><g fill="#e75480" fill-opacity="1"><g transform="translate(134.613466, 202.775565)"><g><path d="M 2.671875 -4.296875 C 2.671875 -3.585938 2.789062 -2.984375 3.03125 -2.484375 C 3.28125 -1.984375 3.613281 -1.578125 4.03125 -1.265625 C 4.445312 -0.960938 4.914062 -0.757812 5.4375 -0.65625 C 5.957031 -0.550781 6.488281 -0.546875 7.03125 -0.640625 C 7.570312 -0.742188 8.09375 -0.945312 8.59375 -1.25 C 9.101562 -1.550781 9.550781 -1.953125 9.9375 -2.453125 C 10.332031 -2.953125 10.628906 -3.554688 10.828125 -4.265625 C 10.691406 -3.359375 10.414062 -2.601562 10 -2 C 9.582031 -1.40625 9.070312 -0.945312 8.46875 -0.625 C 7.875 -0.300781 7.234375 -0.101562 6.546875 -0.03125 C 5.867188 0.0390625 5.195312 0.00390625 4.53125 -0.140625 C 3.875 -0.296875 3.273438 -0.546875 2.734375 -0.890625 C 2.191406 -1.242188 1.757812 -1.675781 1.4375 -2.1875 C 1.113281 -2.707031 0.953125 -3.300781 0.953125 -3.96875 L 0.953125 -12.40625 C 0.953125 -12.96875 0.898438 -13.378906 0.796875 -13.640625 C 0.703125 -13.910156 0.601562 -14.082031 0.5 -14.15625 C 0.40625 -14.226562 0.359375 -14.265625 0.359375 -14.265625 L 2.671875 -15.171875 C 2.671875 -15.171875 2.671875 -15.132812 2.671875 -15.0625 C 2.671875 -14.988281 2.671875 -14.816406 2.671875 -14.546875 C 2.671875 -14.273438 2.671875 -13.859375 2.671875 -13.296875 C 2.671875 -13.296875 2.671875 -13.273438 2.671875 -13.234375 C 2.671875 -13.203125 2.671875 -13.109375 2.671875 -12.953125 C 2.671875 -12.796875 2.671875 -12.535156 2.671875 -12.171875 C 2.671875 -11.804688 2.671875 -11.289062 2.671875 -10.625 C 2.671875 -9.96875 2.671875 -9.125 2.671875 -8.09375 C 2.671875 -7.0625 2.671875 -5.796875 2.671875 -4.296875 Z M 10.328125 0 C 10.328125 0 10.375 -0.0351562 10.46875 -0.109375 C 10.570312 -0.191406 10.671875 -0.367188 10.765625 -0.640625 C 10.867188 -0.910156 10.921875 -1.320312 10.921875 -1.875 L 10.921875 -12.296875 C 10.921875 -12.867188 10.867188 -13.289062 10.765625 -13.5625 C 10.671875 -13.84375 10.570312 -14.03125 10.46875 -14.125 C 10.375 -14.21875 10.328125 -14.265625 10.328125 -14.265625 L 12.640625 -15.15625 L 12.65625 -1.875 C 12.65625 -1.3125 12.703125 -0.894531 12.796875 -0.625 C 12.898438 -0.351562 13 -0.179688 13.09375 -0.109375 C 13.1875 -0.0351562 13.234375 0 13.234375 0 Z M 10.328125 0 "/></g></g></g><g fill="#e75480" fill-opacity="1"><g transform="translate(150.970959, 202.775565)"><g><path d="M 2.75 -10.921875 C 2.769531 -11.703125 2.929688 -12.367188 3.234375 -12.921875 C 3.535156 -13.484375 3.929688 -13.9375 4.421875 -14.28125 C 4.910156 -14.625 5.441406 -14.863281 6.015625 -15 C 6.597656 -15.132812 7.1875 -15.171875 7.78125 -15.109375 C 8.382812 -15.046875 8.957031 -14.890625 9.5 -14.640625 C 10.039062 -14.390625 10.503906 -14.050781 10.890625 -13.625 C 11.285156 -13.195312 11.554688 -12.675781 11.703125 -12.0625 L 10.171875 -11.6875 C 9.984375 -12.363281 9.691406 -12.90625 9.296875 -13.3125 C 8.898438 -13.726562 8.445312 -14.019531 7.9375 -14.1875 C 7.425781 -14.351562 6.894531 -14.398438 6.34375 -14.328125 C 5.800781 -14.265625 5.28125 -14.09375 4.78125 -13.8125 C 4.28125 -13.53125 3.847656 -13.144531 3.484375 -12.65625 C 3.128906 -12.175781 2.882812 -11.597656 2.75 -10.921875 Z M 0.359375 0 C 0.359375 0 0.40625 -0.0351562 0.5 -0.109375 C 0.601562 -0.191406 0.703125 -0.367188 0.796875 -0.640625 C 0.898438 -0.910156 0.953125 -1.320312 0.953125 -1.875 L 0.953125 -12.296875 C 0.953125 -12.867188 0.898438 -13.289062 0.796875 -13.5625 C 0.703125 -13.84375 0.601562 -14.03125 0.5 -14.125 C 0.40625 -14.21875 0.359375 -14.265625 0.359375 -14.265625 L 2.65625 -15.15625 L 2.671875 -1.875 C 2.671875 -1.3125 2.71875 -0.894531 2.8125 -0.625 C 2.914062 -0.351562 3.015625 -0.179688 3.109375 -0.109375 C 3.203125 -0.0351562 3.25 0 3.25 0 Z M 0.359375 0 "/></g></g></g><g fill="#e75480" fill-opacity="1"><g transform="translate(165.798996, 202.775565)"><g/></g></g><g fill="#e75480" fill-opacity="1"><g transform="translate(175.642134, 202.775565)"><g><path d="M 13.515625 -5.5 C 13.515625 -6.15625 13.378906 -6.710938 13.109375 -7.171875 C 12.835938 -7.628906 12.460938 -8.015625 11.984375 -8.328125 C 11.515625 -8.648438 10.976562 -8.925781 10.375 -9.15625 C 9.769531 -9.394531 9.128906 -9.613281 8.453125 -9.8125 C 7.785156 -10.007812 7.113281 -10.210938 6.4375 -10.421875 C 5.757812 -10.640625 5.117188 -10.890625 4.515625 -11.171875 C 3.910156 -11.453125 3.367188 -11.796875 2.890625 -12.203125 C 2.421875 -12.609375 2.050781 -13.097656 1.78125 -13.671875 C 1.507812 -14.253906 1.375 -14.953125 1.375 -15.765625 C 1.375 -15.898438 1.40625 -16.101562 1.46875 -16.375 C 1.53125 -16.644531 1.640625 -16.945312 1.796875 -17.28125 C 1.953125 -17.625 2.179688 -17.972656 2.484375 -18.328125 C 2.785156 -18.679688 3.175781 -19.003906 3.65625 -19.296875 C 4.132812 -19.585938 4.71875 -19.820312 5.40625 -20 C 6.101562 -20.1875 6.925781 -20.28125 7.875 -20.28125 C 8.757812 -20.28125 9.582031 -20.207031 10.34375 -20.0625 C 11.113281 -19.914062 11.78125 -19.742188 12.34375 -19.546875 C 12.914062 -19.347656 13.363281 -19.175781 13.6875 -19.03125 C 14.007812 -18.882812 14.171875 -18.8125 14.171875 -18.8125 L 13.609375 -15.703125 C 13.609375 -15.703125 13.578125 -15.796875 13.515625 -15.984375 C 13.460938 -16.179688 13.359375 -16.4375 13.203125 -16.75 C 13.054688 -17.0625 12.84375 -17.390625 12.5625 -17.734375 C 12.28125 -18.078125 11.921875 -18.40625 11.484375 -18.71875 C 11.046875 -19.03125 10.515625 -19.28125 9.890625 -19.46875 C 9.265625 -19.664062 8.519531 -19.765625 7.65625 -19.765625 C 7.164062 -19.765625 6.65625 -19.695312 6.125 -19.5625 C 5.601562 -19.425781 5.117188 -19.207031 4.671875 -18.90625 C 4.222656 -18.601562 3.859375 -18.195312 3.578125 -17.6875 C 3.304688 -17.175781 3.171875 -16.539062 3.171875 -15.78125 C 3.171875 -15.144531 3.3125 -14.601562 3.59375 -14.15625 C 3.875 -13.71875 4.257812 -13.34375 4.75 -13.03125 C 5.25 -12.726562 5.8125 -12.457031 6.4375 -12.21875 C 7.0625 -11.988281 7.722656 -11.773438 8.421875 -11.578125 C 9.128906 -11.390625 9.832031 -11.1875 10.53125 -10.96875 C 11.226562 -10.75 11.890625 -10.5 12.515625 -10.21875 C 13.148438 -9.945312 13.710938 -9.609375 14.203125 -9.203125 C 14.691406 -8.804688 15.078125 -8.320312 15.359375 -7.75 C 15.640625 -7.1875 15.78125 -6.515625 15.78125 -5.734375 C 15.78125 -4.367188 15.453125 -3.265625 14.796875 -2.421875 C 14.140625 -1.578125 13.210938 -0.960938 12.015625 -0.578125 C 10.816406 -0.191406 9.394531 0 7.75 0 C 6.75 0 5.867188 -0.0859375 5.109375 -0.265625 C 4.347656 -0.441406 3.6875 -0.671875 3.125 -0.953125 C 2.570312 -1.242188 2.101562 -1.546875 1.71875 -1.859375 C 1.332031 -2.171875 1.03125 -2.460938 0.8125 -2.734375 C 0.59375 -3.015625 0.441406 -3.234375 0.359375 -3.390625 L 1.5625 -5.34375 C 1.601562 -5.164062 1.710938 -4.890625 1.890625 -4.515625 C 2.066406 -4.140625 2.3125 -3.722656 2.625 -3.265625 C 2.9375 -2.804688 3.332031 -2.363281 3.8125 -1.9375 C 4.289062 -1.519531 4.859375 -1.175781 5.515625 -0.90625 C 6.171875 -0.632812 6.914062 -0.5 7.75 -0.5 C 9.0625 -0.5 10.144531 -0.703125 11 -1.109375 C 11.851562 -1.523438 12.484375 -2.109375 12.890625 -2.859375 C 13.304688 -3.609375 13.515625 -4.488281 13.515625 -5.5 Z M 13.515625 -5.5 "/></g></g></g><g fill="#e75480" fill-opacity="1"><g transform="translate(194.548726, 202.775565)"><g><path d="M 1.78125 -19 C 2.175781 -19 2.515625 -18.851562 2.796875 -18.5625 C 3.078125 -18.28125 3.21875 -17.941406 3.21875 -17.546875 C 3.21875 -17.160156 3.078125 -16.828125 2.796875 -16.546875 C 2.515625 -16.273438 2.175781 -16.140625 1.78125 -16.140625 C 1.394531 -16.140625 1.0625 -16.273438 0.78125 -16.546875 C 0.5 -16.828125 0.359375 -17.160156 0.359375 -17.546875 C 0.359375 -17.941406 0.5 -18.28125 0.78125 -18.5625 C 1.0625 -18.851562 1.394531 -19 1.78125 -19 Z M 0.5 0 C 0.5 0 0.546875 -0.0351562 0.640625 -0.109375 C 0.742188 -0.191406 0.84375 -0.367188 0.9375 -0.640625 C 1.039062 -0.910156 1.09375 -1.320312 1.09375 -1.875 L 1.09375 -12.296875 C 1.09375 -12.867188 1.039062 -13.289062 0.9375 -13.5625 C 0.84375 -13.84375 0.742188 -14.03125 0.640625 -14.125 C 0.546875 -14.21875 0.5 -14.265625 0.5 -14.265625 L 2.796875 -15.15625 L 2.8125 -1.875 C 2.8125 -1.3125 2.859375 -0.894531 2.953125 -0.625 C 3.054688 -0.351562 3.15625 -0.179688 3.25 -0.109375 C 3.34375 -0.0351562 3.390625 0 3.390625 0 Z M 0.5 0 "/></g></g></g><g fill="#e75480" fill-opacity="1"><g transform="translate(201.063878, 202.775565)"><g><path d="M 11.78125 -4 C 11.78125 -4.53125 11.628906 -4.960938 11.328125 -5.296875 C 11.035156 -5.628906 10.632812 -5.898438 10.125 -6.109375 C 9.613281 -6.316406 9.039062 -6.492188 8.40625 -6.640625 C 7.769531 -6.785156 7.117188 -6.929688 6.453125 -7.078125 C 5.785156 -7.222656 5.132812 -7.390625 4.5 -7.578125 C 3.863281 -7.773438 3.289062 -8.023438 2.78125 -8.328125 C 2.28125 -8.640625 1.878906 -9.035156 1.578125 -9.515625 C 1.273438 -10.003906 1.125 -10.609375 1.125 -11.328125 C 1.125 -11.429688 1.140625 -11.59375 1.171875 -11.8125 C 1.210938 -12.03125 1.289062 -12.285156 1.40625 -12.578125 C 1.519531 -12.867188 1.703125 -13.160156 1.953125 -13.453125 C 2.203125 -13.753906 2.546875 -14.03125 2.984375 -14.28125 C 3.429688 -14.539062 3.984375 -14.75 4.640625 -14.90625 C 5.304688 -15.0625 6.113281 -15.140625 7.0625 -15.140625 C 7.957031 -15.140625 8.75 -15.070312 9.4375 -14.9375 C 10.125 -14.8125 10.707031 -14.664062 11.1875 -14.5 C 11.664062 -14.332031 12.023438 -14.1875 12.265625 -14.0625 C 12.515625 -13.9375 12.640625 -13.875 12.640625 -13.875 L 12.09375 -11.546875 C 12.09375 -11.546875 12.078125 -11.617188 12.046875 -11.765625 C 12.023438 -11.921875 11.96875 -12.117188 11.875 -12.359375 C 11.78125 -12.609375 11.625 -12.867188 11.40625 -13.140625 C 11.1875 -13.410156 10.882812 -13.664062 10.5 -13.90625 C 10.125 -14.144531 9.632812 -14.34375 9.03125 -14.5 C 8.4375 -14.65625 7.710938 -14.734375 6.859375 -14.734375 C 6.359375 -14.734375 5.875 -14.660156 5.40625 -14.515625 C 4.945312 -14.367188 4.53125 -14.15625 4.15625 -13.875 C 3.78125 -13.59375 3.484375 -13.238281 3.265625 -12.8125 C 3.046875 -12.382812 2.9375 -11.894531 2.9375 -11.34375 C 2.9375 -10.8125 3.085938 -10.375 3.390625 -10.03125 C 3.703125 -9.695312 4.125 -9.414062 4.65625 -9.1875 C 5.1875 -8.96875 5.78125 -8.785156 6.4375 -8.640625 C 7.101562 -8.492188 7.785156 -8.347656 8.484375 -8.203125 C 9.179688 -8.066406 9.859375 -7.90625 10.515625 -7.71875 C 11.179688 -7.539062 11.773438 -7.3125 12.296875 -7.03125 C 12.828125 -6.75 13.25 -6.390625 13.5625 -5.953125 C 13.875 -5.515625 14.03125 -4.960938 14.03125 -4.296875 C 14.03125 -3.472656 13.796875 -2.738281 13.328125 -2.09375 C 12.859375 -1.445312 12.113281 -0.9375 11.09375 -0.5625 C 10.082031 -0.1875 8.753906 0 7.109375 0 C 6.117188 0 5.265625 -0.0625 4.546875 -0.1875 C 3.828125 -0.320312 3.21875 -0.492188 2.71875 -0.703125 C 2.21875 -0.921875 1.804688 -1.144531 1.484375 -1.375 C 1.171875 -1.613281 0.925781 -1.832031 0.75 -2.03125 C 0.570312 -2.238281 0.441406 -2.398438 0.359375 -2.515625 L 1.5625 -3.984375 C 1.601562 -3.847656 1.691406 -3.640625 1.828125 -3.359375 C 1.960938 -3.078125 2.15625 -2.765625 2.40625 -2.421875 C 2.65625 -2.078125 2.988281 -1.75 3.40625 -1.4375 C 3.820312 -1.132812 4.332031 -0.878906 4.9375 -0.671875 C 5.550781 -0.472656 6.285156 -0.375 7.140625 -0.375 C 7.921875 -0.375 8.582031 -0.457031 9.125 -0.625 C 9.675781 -0.800781 10.125 -1.03125 10.46875 -1.3125 C 10.8125 -1.59375 11.078125 -1.894531 11.265625 -2.21875 C 11.460938 -2.550781 11.597656 -2.875 11.671875 -3.1875 C 11.742188 -3.507812 11.78125 -3.78125 11.78125 -4 Z M 11.78125 -4 "/></g></g></g><g fill="#e75480" fill-opacity="1"><g transform="translate(218.214429, 202.775565)"><g><path d="M 4.125 -15.140625 L 6.59375 -15.140625 L 6.59375 -14.671875 L 4.125 -14.671875 L 4.140625 -2.203125 C 4.128906 -1.804688 4.203125 -1.519531 4.359375 -1.34375 C 4.515625 -1.164062 4.707031 -1.066406 4.9375 -1.046875 C 5.164062 -1.023438 5.378906 -1.0625 5.578125 -1.15625 C 5.773438 -1.25 5.898438 -1.375 5.953125 -1.53125 C 5.953125 -1.0625 5.785156 -0.6875 5.453125 -0.40625 C 5.117188 -0.132812 4.722656 0 4.265625 0 C 4.148438 0 3.988281 -0.0234375 3.78125 -0.078125 C 3.582031 -0.128906 3.375 -0.234375 3.15625 -0.390625 C 2.945312 -0.546875 2.769531 -0.769531 2.625 -1.0625 C 2.476562 -1.351562 2.40625 -1.738281 2.40625 -2.21875 C 2.40625 -5.46875 2.40625 -8.101562 2.40625 -10.125 C 2.40625 -12.15625 2.40625 -13.671875 2.40625 -14.671875 L 0.359375 -14.671875 L 0.359375 -15.140625 L 2.40625 -15.140625 C 2.40625 -15.535156 2.40625 -15.820312 2.40625 -16 C 2.40625 -16.175781 2.40625 -16.265625 2.40625 -16.265625 C 2.40625 -16.828125 2.351562 -17.25 2.25 -17.53125 C 2.15625 -17.8125 2.054688 -18 1.953125 -18.09375 C 1.859375 -18.1875 1.8125 -18.234375 1.8125 -18.234375 L 4.125 -19.125 Z M 4.125 -15.140625 "/></g></g></g><g fill="#e75480" fill-opacity="1"><g transform="translate(227.93011, 202.775565)"><g><path d="M 2.140625 -7.90625 C 2.148438 -6.769531 2.3125 -5.785156 2.625 -4.953125 C 2.945312 -4.117188 3.378906 -3.421875 3.921875 -2.859375 C 4.472656 -2.304688 5.082031 -1.878906 5.75 -1.578125 C 6.425781 -1.273438 7.128906 -1.082031 7.859375 -1 C 8.597656 -0.925781 9.316406 -0.953125 10.015625 -1.078125 C 10.710938 -1.203125 11.359375 -1.410156 11.953125 -1.703125 C 12.554688 -2.003906 13.054688 -2.378906 13.453125 -2.828125 C 13.859375 -3.273438 14.117188 -3.785156 14.234375 -4.359375 C 14.179688 -3.796875 13.988281 -3.253906 13.65625 -2.734375 C 13.332031 -2.210938 12.90625 -1.742188 12.375 -1.328125 C 11.84375 -0.910156 11.226562 -0.582031 10.53125 -0.34375 C 9.84375 -0.101562 9.101562 0.015625 8.3125 0.015625 C 7.09375 0.015625 5.992188 -0.191406 5.015625 -0.609375 C 4.035156 -1.035156 3.195312 -1.613281 2.5 -2.34375 C 1.8125 -3.070312 1.28125 -3.90625 0.90625 -4.84375 C 0.539062 -5.789062 0.359375 -6.789062 0.359375 -7.84375 C 0.359375 -8.882812 0.550781 -9.847656 0.9375 -10.734375 C 1.332031 -11.628906 1.867188 -12.40625 2.546875 -13.0625 C 3.234375 -13.71875 4.023438 -14.226562 4.921875 -14.59375 C 5.816406 -14.957031 6.765625 -15.140625 7.765625 -15.140625 C 8.765625 -15.140625 9.6875 -15.007812 10.53125 -14.75 C 11.382812 -14.5 12.117188 -14.09375 12.734375 -13.53125 C 13.347656 -12.976562 13.828125 -12.253906 14.171875 -11.359375 C 14.515625 -10.460938 14.6875 -9.375 14.6875 -8.09375 L 2.140625 -8.09375 Z M 7.765625 -14.5 C 7.054688 -14.5 6.375 -14.351562 5.71875 -14.0625 C 5.070312 -13.769531 4.488281 -13.351562 3.96875 -12.8125 C 3.457031 -12.28125 3.039062 -11.648438 2.71875 -10.921875 C 2.394531 -10.203125 2.207031 -9.40625 2.15625 -8.53125 L 13.078125 -8.53125 C 13.078125 -9.382812 12.972656 -10.171875 12.765625 -10.890625 C 12.554688 -11.609375 12.238281 -12.238281 11.8125 -12.78125 C 11.382812 -13.320312 10.832031 -13.742188 10.15625 -14.046875 C 9.488281 -14.347656 8.691406 -14.5 7.765625 -14.5 Z M 7.765625 -14.5 "/></g></g></g><g fill="#e75480" fill-opacity="1"><g transform="translate(245.746252, 202.775565)"><g><path d="M 2.75 -10.921875 C 2.769531 -11.703125 2.929688 -12.367188 3.234375 -12.921875 C 3.535156 -13.484375 3.929688 -13.9375 4.421875 -14.28125 C 4.910156 -14.625 5.441406 -14.863281 6.015625 -15 C 6.597656 -15.132812 7.1875 -15.171875 7.78125 -15.109375 C 8.382812 -15.046875 8.957031 -14.890625 9.5 -14.640625 C 10.039062 -14.390625 10.503906 -14.050781 10.890625 -13.625 C 11.285156 -13.195312 11.554688 -12.675781 11.703125 -12.0625 L 10.171875 -11.6875 C 9.984375 -12.363281 9.691406 -12.90625 9.296875 -13.3125 C 8.898438 -13.726562 8.445312 -14.019531 7.9375 -14.1875 C 7.425781 -14.351562 6.894531 -14.398438 6.34375 -14.328125 C 5.800781 -14.265625 5.28125 -14.09375 4.78125 -13.8125 C 4.28125 -13.53125 3.847656 -13.144531 3.484375 -12.65625 C 3.128906 -12.175781 2.882812 -11.597656 2.75 -10.921875 Z M 0.359375 0 C 0.359375 0 0.40625 -0.0351562 0.5 -0.109375 C 0.601562 -0.191406 0.703125 -0.367188 0.796875 -0.640625 C 0.898438 -0.910156 0.953125 -1.320312 0.953125 -1.875 L 0.953125 -12.296875 C 0.953125 -12.867188 0.898438 -13.289062 0.796875 -13.5625 C 0.703125 -13.84375 0.601562 -14.03125 0.5 -14.125 C 0.40625 -14.21875 0.359375 -14.265625 0.359375 -14.265625 L 2.65625 -15.15625 L 2.671875 -1.875 C 2.671875 -1.3125 2.71875 -0.894531 2.8125 -0.625 C 2.914062 -0.351562 3.015625 -0.179688 3.109375 -0.109375 C 3.203125 -0.0351562 3.25 0 3.25 0 Z M 0.359375 0 "/></g></g></g><g fill="#e75480" fill-opacity="1"><g transform="translate(260.57429, 202.775565)"><g><path d="M 11.78125 -4 C 11.78125 -4.53125 11.628906 -4.960938 11.328125 -5.296875 C 11.035156 -5.628906 10.632812 -5.898438 10.125 -6.109375 C 9.613281 -6.316406 9.039062 -6.492188 8.40625 -6.640625 C 7.769531 -6.785156 7.117188 -6.929688 6.453125 -7.078125 C 5.785156 -7.222656 5.132812 -7.390625 4.5 -7.578125 C 3.863281 -7.773438 3.289062 -8.023438 2.78125 -8.328125 C 2.28125 -8.640625 1.878906 -9.035156 1.578125 -9.515625 C 1.273438 -10.003906 1.125 -10.609375 1.125 -11.328125 C 1.125 -11.429688 1.140625 -11.59375 1.171875 -11.8125 C 1.210938 -12.03125 1.289062 -12.285156 1.40625 -12.578125 C 1.519531 -12.867188 1.703125 -13.160156 1.953125 -13.453125 C 2.203125 -13.753906 2.546875 -14.03125 2.984375 -14.28125 C 3.429688 -14.539062 3.984375 -14.75 4.640625 -14.90625 C 5.304688 -15.0625 6.113281 -15.140625 7.0625 -15.140625 C 7.957031 -15.140625 8.75 -15.070312 9.4375 -14.9375 C 10.125 -14.8125 10.707031 -14.664062 11.1875 -14.5 C 11.664062 -14.332031 12.023438 -14.1875 12.265625 -14.0625 C 12.515625 -13.9375 12.640625 -13.875 12.640625 -13.875 L 12.09375 -11.546875 C 12.09375 -11.546875 12.078125 -11.617188 12.046875 -11.765625 C 12.023438 -11.921875 11.96875 -12.117188 11.875 -12.359375 C 11.78125 -12.609375 11.625 -12.867188 11.40625 -13.140625 C 11.1875 -13.410156 10.882812 -13.664062 10.5 -13.90625 C 10.125 -14.144531 9.632812 -14.34375 9.03125 -14.5 C 8.4375 -14.65625 7.710938 -14.734375 6.859375 -14.734375 C 6.359375 -14.734375 5.875 -14.660156 5.40625 -14.515625 C 4.945312 -14.367188 4.53125 -14.15625 4.15625 -13.875 C 3.78125 -13.59375 3.484375 -13.238281 3.265625 -12.8125 C 3.046875 -12.382812 2.9375 -11.894531 2.9375 -11.34375 C 2.9375 -10.8125 3.085938 -10.375 3.390625 -10.03125 C 3.703125 -9.695312 4.125 -9.414062 4.65625 -9.1875 C 5.1875 -8.96875 5.78125 -8.785156 6.4375 -8.640625 C 7.101562 -8.492188 7.785156 -8.347656 8.484375 -8.203125 C 9.179688 -8.066406 9.859375 -7.90625 10.515625 -7.71875 C 11.179688 -7.539062 11.773438 -7.3125 12.296875 -7.03125 C 12.828125 -6.75 13.25 -6.390625 13.5625 -5.953125 C 13.875 -5.515625 14.03125 -4.960938 14.03125 -4.296875 C 14.03125 -3.472656 13.796875 -2.738281 13.328125 -2.09375 C 12.859375 -1.445312 12.113281 -0.9375 11.09375 -0.5625 C 10.082031 -0.1875 8.753906 0 7.109375 0 C 6.117188 0 5.265625 -0.0625 4.546875 -0.1875 C 3.828125 -0.320312 3.21875 -0.492188 2.71875 -0.703125 C 2.21875 -0.921875 1.804688 -1.144531 1.484375 -1.375 C 1.171875 -1.613281 0.925781 -1.832031 0.75 -2.03125 C 0.570312 -2.238281 0.441406 -2.398438 0.359375 -2.515625 L 1.5625 -3.984375 C 1.601562 -3.847656 1.691406 -3.640625 1.828125 -3.359375 C 1.960938 -3.078125 2.15625 -2.765625 2.40625 -2.421875 C 2.65625 -2.078125 2.988281 -1.75 3.40625 -1.4375 C 3.820312 -1.132812 4.332031 -0.878906 4.9375 -0.671875 C 5.550781 -0.472656 6.285156 -0.375 7.140625 -0.375 C 7.921875 -0.375 8.582031 -0.457031 9.125 -0.625 C 9.675781 -0.800781 10.125 -1.03125 10.46875 -1.3125 C 10.8125 -1.59375 11.078125 -1.894531 11.265625 -2.21875 C 11.460938 -2.550781 11.597656 -2.875 11.671875 -3.1875 C 11.742188 -3.507812 11.78125 -3.78125 11.78125 -4 Z M 11.78125 -4 "/></g></g></g><g fill="#8a5d3b" fill-opacity="1"><g transform="translate(148.981436, 222.231629)"><g><path d="M 9.71875 -2.890625 C 9.363281 -1.984375 8.789062 -1.253906 8 -0.703125 C 7.1875 -0.140625 6.300781 0.140625 5.34375 0.140625 C 4.03125 0.140625 2.910156 -0.34375 1.984375 -1.3125 C 1.078125 -2.25 0.625 -3.382812 0.625 -4.71875 C 0.625 -5.375 0.742188 -6 0.984375 -6.59375 C 1.222656 -7.175781 1.554688 -7.691406 1.984375 -8.140625 C 2.910156 -9.097656 4.03125 -9.578125 5.34375 -9.578125 C 6.300781 -9.578125 7.179688 -9.304688 7.984375 -8.765625 C 8.773438 -8.203125 9.347656 -7.472656 9.703125 -6.578125 L 8.640625 -6.578125 C 8.128906 -7.515625 7.367188 -8.132812 6.359375 -8.4375 C 6.023438 -8.53125 5.640625 -8.578125 5.203125 -8.578125 C 4.765625 -8.578125 4.316406 -8.476562 3.859375 -8.28125 C 3.410156 -8.0625 3.019531 -7.773438 2.6875 -7.421875 C 1.957031 -6.671875 1.59375 -5.769531 1.59375 -4.71875 C 1.59375 -3.664062 1.957031 -2.765625 2.6875 -2.015625 C 3.414062 -1.242188 4.300781 -0.859375 5.34375 -0.859375 C 6.039062 -0.859375 6.6875 -1.046875 7.28125 -1.421875 C 7.863281 -1.785156 8.320312 -2.273438 8.65625 -2.890625 Z M 9.71875 -2.890625 "/></g></g></g><g fill="#8a5d3b" fill-opacity="1"><g transform="translate(159.130228, 222.231629)"><g><path d="M 6.046875 -3.09375 C 6.046875 -3.695312 5.828125 -4.21875 5.390625 -4.65625 C 4.953125 -5.09375 4.429688 -5.3125 3.828125 -5.3125 C 3.210938 -5.3125 2.6875 -5.09375 2.25 -4.65625 C 1.8125 -4.21875 1.59375 -3.695312 1.59375 -3.09375 C 1.59375 -2.488281 1.8125 -1.96875 2.25 -1.53125 C 2.6875 -1.09375 3.210938 -0.875 3.828125 -0.875 C 4.429688 -0.875 4.953125 -1.09375 5.390625 -1.53125 C 5.828125 -1.96875 6.046875 -2.488281 6.046875 -3.09375 Z M 7.015625 -3.09375 C 7.015625 -2.195312 6.707031 -1.441406 6.09375 -0.828125 C 5.445312 -0.210938 4.691406 0.09375 3.828125 0.09375 C 2.953125 0.09375 2.203125 -0.210938 1.578125 -0.828125 C 0.941406 -1.441406 0.625 -2.195312 0.625 -3.09375 C 0.625 -3.96875 0.941406 -4.722656 1.578125 -5.359375 C 2.191406 -5.972656 2.941406 -6.28125 3.828125 -6.28125 C 4.703125 -6.28125 5.457031 -5.972656 6.09375 -5.359375 C 6.707031 -4.722656 7.015625 -3.96875 7.015625 -3.09375 Z M 7.015625 -3.09375 "/></g></g></g><g fill="#8a5d3b" fill-opacity="1"><g transform="translate(166.790475, 222.231629)"><g><path d="M 4.328125 -9.53125 L 3.484375 -9.53125 C 3.160156 -9.53125 2.945312 -9.453125 2.84375 -9.296875 C 2.75 -9.148438 2.703125 -8.972656 2.703125 -8.765625 L 2.703125 -6.125 L 4.328125 -6.125 L 4.328125 -5.21875 L 2.703125 -5.21875 L 2.703125 0 L 1.71875 0 L 1.71875 -5.21875 L 0.484375 -5.21875 L 0.484375 -6.125 L 1.71875 -6.125 L 1.71875 -8.484375 C 1.71875 -9.109375 1.867188 -9.585938 2.171875 -9.921875 C 2.453125 -10.253906 2.9375 -10.421875 3.625 -10.421875 L 4.328125 -10.421875 Z M 4.328125 -9.53125 "/></g></g></g><g fill="#8a5d3b" fill-opacity="1"><g transform="translate(171.545116, 222.231629)"><g><path d="M 4.328125 -9.53125 L 3.484375 -9.53125 C 3.160156 -9.53125 2.945312 -9.453125 2.84375 -9.296875 C 2.75 -9.148438 2.703125 -8.972656 2.703125 -8.765625 L 2.703125 -6.125 L 4.328125 -6.125 L 4.328125 -5.21875 L 2.703125 -5.21875 L 2.703125 0 L 1.71875 0 L 1.71875 -5.21875 L 0.484375 -5.21875 L 0.484375 -6.125 L 1.71875 -6.125 L 1.71875 -8.484375 C 1.71875 -9.109375 1.867188 -9.585938 2.171875 -9.921875 C 2.453125 -10.253906 2.9375 -10.421875 3.625 -10.421875 L 4.328125 -10.421875 Z M 4.328125 -9.53125 "/></g></g></g><g fill="#8a5d3b" fill-opacity="1"><g transform="translate(176.299756, 222.231629)"><g><path d="M 7.015625 -3.203125 L 7.015625 -2.6875 L 1.640625 -2.6875 C 1.734375 -2.15625 1.988281 -1.722656 2.40625 -1.390625 C 2.832031 -1.046875 3.304688 -0.875 3.828125 -0.875 C 4.179688 -0.875 4.519531 -0.957031 4.84375 -1.125 C 5.15625 -1.28125 5.414062 -1.503906 5.625 -1.796875 L 6.75 -1.796875 C 6.488281 -1.210938 6.097656 -0.753906 5.578125 -0.421875 C 5.046875 -0.078125 4.515625 0.09375 3.984375 0.09375 C 3.429688 0.09375 2.96875 0.0078125 2.59375 -0.15625 C 2.195312 -0.320312 1.859375 -0.546875 1.578125 -0.828125 C 0.941406 -1.441406 0.625 -2.195312 0.625 -3.09375 C 0.625 -3.96875 0.941406 -4.722656 1.578125 -5.359375 C 2.191406 -5.972656 2.941406 -6.28125 3.828125 -6.28125 C 4.679688 -6.28125 5.425781 -5.976562 6.0625 -5.375 C 6.695312 -4.769531 7.015625 -4.046875 7.015625 -3.203125 Z M 6 -3.515625 C 5.882812 -4.035156 5.625 -4.46875 5.21875 -4.8125 C 4.8125 -5.144531 4.347656 -5.3125 3.828125 -5.3125 C 3.023438 -5.3125 2.398438 -4.953125 1.953125 -4.234375 C 1.804688 -4.015625 1.707031 -3.773438 1.65625 -3.515625 Z M 6 -3.515625 "/></g></g></g><g fill="#8a5d3b" fill-opacity="1"><g transform="translate(183.890496, 222.231629)"><g><path d="M 7.015625 -3.203125 L 7.015625 -2.6875 L 1.640625 -2.6875 C 1.734375 -2.15625 1.988281 -1.722656 2.40625 -1.390625 C 2.832031 -1.046875 3.304688 -0.875 3.828125 -0.875 C 4.179688 -0.875 4.519531 -0.957031 4.84375 -1.125 C 5.15625 -1.28125 5.414062 -1.503906 5.625 -1.796875 L 6.75 -1.796875 C 6.488281 -1.210938 6.097656 -0.753906 5.578125 -0.421875 C 5.046875 -0.078125 4.515625 0.09375 3.984375 0.09375 C 3.429688 0.09375 2.96875 0.0078125 2.59375 -0.15625 C 2.195312 -0.320312 1.859375 -0.546875 1.578125 -0.828125 C 0.941406 -1.441406 0.625 -2.195312 0.625 -3.09375 C 0.625 -3.96875 0.941406 -4.722656 1.578125 -5.359375 C 2.191406 -5.972656 2.941406 -6.28125 3.828125 -6.28125 C 4.679688 -6.28125 5.425781 -5.976562 6.0625 -5.375 C 6.695312 -4.769531 7.015625 -4.046875 7.015625 -3.203125 Z M 6 -3.515625 C 5.882812 -4.035156 5.625 -4.46875 5.21875 -4.8125 C 4.8125 -5.144531 4.347656 -5.3125 3.828125 -5.3125 C 3.023438 -5.3125 2.398438 -4.953125 1.953125 -4.234375 C 1.804688 -4.015625 1.707031 -3.773438 1.65625 -3.515625 Z M 6 -3.515625 "/></g></g></g><g fill="#8a5d3b" fill-opacity="1"><g transform="translate(191.481236, 222.231629)"><g/></g></g><g fill="#8a5d3b" fill-opacity="1"><g transform="translate(195.248805, 222.231629)"><g><path d="M 9.71875 -2.890625 C 9.363281 -1.984375 8.789062 -1.253906 8 -0.703125 C 7.1875 -0.140625 6.300781 0.140625 5.34375 0.140625 C 4.03125 0.140625 2.910156 -0.34375 1.984375 -1.3125 C 1.078125 -2.25 0.625 -3.382812 0.625 -4.71875 C 0.625 -5.375 0.742188 -6 0.984375 -6.59375 C 1.222656 -7.175781 1.554688 -7.691406 1.984375 -8.140625 C 2.910156 -9.097656 4.03125 -9.578125 5.34375 -9.578125 C 6.300781 -9.578125 7.179688 -9.304688 7.984375 -8.765625 C 8.773438 -8.203125 9.347656 -7.472656 9.703125 -6.578125 L 8.640625 -6.578125 C 8.128906 -7.515625 7.367188 -8.132812 6.359375 -8.4375 C 6.023438 -8.53125 5.640625 -8.578125 5.203125 -8.578125 C 4.765625 -8.578125 4.316406 -8.476562 3.859375 -8.28125 C 3.410156 -8.0625 3.019531 -7.773438 2.6875 -7.421875 C 1.957031 -6.671875 1.59375 -5.769531 1.59375 -4.71875 C 1.59375 -3.664062 1.957031 -2.765625 2.6875 -2.015625 C 3.414062 -1.242188 4.300781 -0.859375 5.34375 -0.859375 C 6.039062 -0.859375 6.6875 -1.046875 7.28125 -1.421875 C 7.863281 -1.785156 8.320312 -2.273438 8.65625 -2.890625 Z M 9.71875 -2.890625 "/></g></g></g><g fill="#8a5d3b" fill-opacity="1"><g transform="translate(205.397597, 222.231629)"><g><path d="M 6.046875 -3.09375 C 6.046875 -3.695312 5.828125 -4.21875 5.390625 -4.65625 C 4.953125 -5.09375 4.429688 -5.3125 3.828125 -5.3125 C 3.210938 -5.3125 2.6875 -5.09375 2.25 -4.65625 C 1.8125 -4.21875 1.59375 -3.695312 1.59375 -3.09375 C 1.59375 -2.488281 1.8125 -1.96875 2.25 -1.53125 C 2.6875 -1.09375 3.210938 -0.875 3.828125 -0.875 C 4.429688 -0.875 4.953125 -1.09375 5.390625 -1.53125 C 5.828125 -1.96875 6.046875 -2.488281 6.046875 -3.09375 Z M 7.015625 -3.09375 C 7.015625 -2.195312 6.707031 -1.441406 6.09375 -0.828125 C 5.445312 -0.210938 4.691406 0.09375 3.828125 0.09375 C 2.953125 0.09375 2.203125 -0.210938 1.578125 -0.828125 C 0.941406 -1.441406 0.625 -2.195312 0.625 -3.09375 C 0.625 -3.96875 0.941406 -4.722656 1.578125 -5.359375 C 2.191406 -5.972656 2.941406 -6.28125 3.828125 -6.28125 C 4.703125 -6.28125 5.457031 -5.972656 6.09375 -5.359375 C 6.707031 -4.722656 7.015625 -3.96875 7.015625 -3.09375 Z M 7.015625 -3.09375 "/></g></g></g><g fill="#8a5d3b" fill-opacity="1"><g transform="translate(213.057844, 222.231629)"><g><path d="M 1.84375 0.140625 C 1.632812 0.140625 1.453125 0.0625 1.296875 -0.09375 C 1.128906 -0.238281 1.046875 -0.421875 1.046875 -0.640625 C 1.046875 -0.847656 1.125 -1.035156 1.28125 -1.203125 C 1.4375 -1.359375 1.625 -1.4375 1.84375 -1.4375 C 2.070312 -1.4375 2.269531 -1.359375 2.4375 -1.203125 C 2.59375 -1.046875 2.671875 -0.863281 2.671875 -0.65625 C 2.671875 -0.425781 2.585938 -0.238281 2.421875 -0.09375 C 2.253906 0.0625 2.0625 0.140625 1.84375 0.140625 Z M 1.84375 0.140625 "/></g></g></g><g fill="#8a5d3b" fill-opacity="1"><g transform="translate(216.788475, 222.231629)"><g/></g></g></svg>