<svg xmlns="http://www.w3.org/2000/svg" xmlns:xlink="http://www.w3.org/1999/xlink" width="500" zoomAndPan="magnify" viewBox="0 0 375 374.999991" height="500" preserveAspectRatio="xMidYMid meet" version="1.0"><defs><g/><clipPath id="22b6663cb1"><path d="M 162.476562 115.449219 L 191 115.449219 L 191 187 L 162.476562 187 Z M 162.476562 115.449219 " clip-rule="nonzero"/></clipPath><clipPath id="ec54e38676"><path d="M 185.90625 115.464844 L 212.726562 115.464844 L 212.726562 187.433594 L 185.90625 187.433594 Z M 185.90625 115.464844 " clip-rule="nonzero"/></clipPath></defs><rect x="-37.5" width="450" fill="#ffffff" y="-37.499999" height="449.999989" fill-opacity="1"/><rect x="-37.5" width="450" fill="#ffffff" y="-37.499999" height="449.999989" fill-opacity="1"/><path fill="#c3996b" d="M 176.414062 186.121094 C 172.585938 184.058594 169.230469 180.214844 166.925781 175.226562 C 164.210938 169.359375 163.046875 162.410156 163.558594 155.128906 C 164.117188 147.21875 166.660156 139.800781 170.710938 134.238281 C 173.601562 130.273438 177.035156 127.519531 180.71875 126.191406 C 179.320312 130.847656 178.273438 138.042969 179.816406 148.011719 C 180.152344 150.1875 180.566406 152.441406 180.96875 154.617188 C 182.132812 160.925781 183.335938 167.449219 182.855469 173.167969 C 182.378906 178.859375 180.324219 182.992188 176.414062 186.121094 " fill-opacity="1" fill-rule="nonzero"/><path fill="#c3996b" d="M 194.933594 181.488281 C 198.324219 175.53125 200.421875 166.175781 196.121094 152.152344 C 194.976562 148.417969 193.332031 141.574219 192.460938 134.570312 C 191.683594 128.308594 191.6875 123.339844 192.472656 120.097656 C 197.289062 121.558594 201.546875 125.484375 204.539062 131.257812 C 207.789062 137.523438 209.265625 145.429688 208.695312 153.515625 C 208.117188 161.699219 205.496094 169.386719 201.3125 175.160156 C 199.414062 177.777344 197.25 179.917969 194.933594 181.488281 " fill-opacity="1" fill-rule="nonzero"/><g clip-path="url(#22b6663cb1)"><path fill="#8a5d3b" d="M 188.105469 168.269531 C 188.019531 174.609375 185.972656 179.328125 181.679688 183.054688 C 177.195312 181.234375 173.136719 177.324219 170.179688 171.957031 C 166.914062 166.035156 165.191406 158.882812 165.191406 151.269531 C 165.191406 142.996094 167.296875 135.082031 171.121094 128.976562 C 174.3125 123.882812 178.464844 120.417969 182.996094 119.011719 C 181.539062 124.0625 180.714844 131.808594 183.183594 142.652344 C 183.675781 144.828125 184.261719 147.082031 184.824219 149.265625 C 186.476562 155.664062 188.1875 162.285156 188.105469 168.269531 Z M 187.453125 148.59375 C 186.890625 146.429688 186.3125 144.191406 185.828125 142.054688 C 182.945312 129.398438 184.894531 121.324219 186.3125 117.636719 L 187.152344 115.464844 L 184.839844 115.820312 C 172.089844 117.789062 162.476562 133.027344 162.476562 151.269531 C 162.476562 167.691406 170.296875 181.917969 181.488281 185.871094 L 182.207031 186.121094 L 182.796875 185.644531 C 188.09375 181.363281 190.71875 175.691406 190.820312 168.304688 C 190.90625 161.960938 189.148438 155.164062 187.453125 148.59375 " fill-opacity="1" fill-rule="nonzero"/></g><g clip-path="url(#ec54e38676)"><path fill="#8a5d3b" d="M 194.582031 182.585938 C 198.636719 176.878906 201.792969 166.964844 195.699219 151.148438 C 194.304688 147.535156 192.199219 140.878906 190.851562 134.023438 C 189.5 127.15625 189.234375 121.835938 190.0625 118.503906 C 201.339844 120.320312 210.019531 134.414062 210.019531 151.269531 C 210.019531 159.503906 207.933594 167.390625 204.140625 173.484375 C 201.503906 177.710938 198.207031 180.832031 194.582031 182.585938 Z M 206.039062 126.992188 C 201.648438 120.277344 195.675781 116.257812 189.21875 115.679688 L 188.183594 115.589844 L 187.824219 116.558594 C 184.734375 124.9375 190.089844 144.132812 193.164062 152.113281 C 200.347656 170.742188 193.890625 180.3125 189.40625 184.355469 L 185.996094 187.433594 L 190.539062 186.6875 C 203.191406 184.613281 212.734375 169.386719 212.734375 151.269531 C 212.734375 142.222656 210.355469 133.601562 206.039062 126.992188 " fill-opacity="1" fill-rule="nonzero"/></g><g fill="#ff66c4" fill-opacity="1"><g transform="translate(68.316104, 230.71919)"><g><path d="M 11.046875 -13.90625 C 11.046875 -13.90625 10.976562 -14.003906 10.84375 -14.203125 C 10.707031 -14.410156 10.46875 -14.644531 10.125 -14.90625 C 9.789062 -15.164062 9.3125 -15.394531 8.6875 -15.59375 C 8.0625 -15.800781 7.25 -15.90625 6.25 -15.90625 L 3.75 -15.90625 L 3.75 -2.78125 C 3.75 -2 3.816406 -1.410156 3.953125 -1.015625 C 4.097656 -0.617188 4.234375 -0.351562 4.359375 -0.21875 C 4.492188 -0.0820312 4.5625 -0.015625 4.5625 -0.015625 L 0.5 -0.015625 C 0.5 -0.015625 0.566406 -0.0820312 0.703125 -0.21875 C 0.835938 -0.351562 0.972656 -0.617188 1.109375 -1.015625 C 1.253906 -1.410156 1.328125 -2 1.328125 -2.78125 L 1.328125 -25.84375 C 1.328125 -26.632812 1.253906 -27.210938 1.109375 -27.578125 C 0.972656 -27.953125 0.835938 -28.195312 0.703125 -28.3125 C 0.566406 -28.425781 0.5 -28.484375 0.5 -28.484375 L 18.421875 -28.484375 L 19.25 -24.6875 C 19.25 -24.6875 19.179688 -24.785156 19.046875 -24.984375 C 18.910156 -25.191406 18.644531 -25.441406 18.25 -25.734375 C 17.863281 -26.035156 17.289062 -26.332031 16.53125 -26.625 C 15.769531 -26.914062 14.765625 -27.164062 13.515625 -27.375 C 12.265625 -27.582031 10.710938 -27.6875 8.859375 -27.6875 L 3.984375 -27.6875 C 3.921875 -27.5 3.863281 -27.253906 3.8125 -26.953125 C 3.769531 -26.648438 3.75 -26.285156 3.75 -25.859375 L 3.75 -16.578125 L 6.25 -16.578125 C 7.25 -16.578125 8.0625 -16.679688 8.6875 -16.890625 C 9.3125 -17.097656 9.789062 -17.328125 10.125 -17.578125 C 10.46875 -17.835938 10.707031 -18.070312 10.84375 -18.28125 C 10.976562 -18.488281 11.046875 -18.59375 11.046875 -18.59375 Z M 11.046875 -13.90625 "/></g></g></g><g fill="#ff66c4" fill-opacity="1"><g transform="translate(91.920717, 230.71919)"><g><path d="M 10.703125 -21.25 C 12.117188 -21.25 13.441406 -20.96875 14.671875 -20.40625 C 15.898438 -19.851562 16.984375 -19.085938 17.921875 -18.109375 C 18.859375 -17.140625 19.585938 -16.015625 20.109375 -14.734375 C 20.640625 -13.453125 20.90625 -12.078125 20.90625 -10.609375 C 20.90625 -9.140625 20.640625 -7.757812 20.109375 -6.46875 C 19.585938 -5.1875 18.859375 -4.054688 17.921875 -3.078125 C 16.984375 -2.109375 15.898438 -1.347656 14.671875 -0.796875 C 13.441406 -0.253906 12.117188 0.015625 10.703125 0.015625 C 9.296875 0.015625 7.972656 -0.253906 6.734375 -0.796875 C 5.503906 -1.347656 4.421875 -2.109375 3.484375 -3.078125 C 2.546875 -4.054688 1.8125 -5.1875 1.28125 -6.46875 C 0.757812 -7.757812 0.5 -9.140625 0.5 -10.609375 C 0.5 -12.078125 0.757812 -13.453125 1.28125 -14.734375 C 1.8125 -16.015625 2.546875 -17.140625 3.484375 -18.109375 C 4.421875 -19.085938 5.503906 -19.851562 6.734375 -20.40625 C 7.972656 -20.96875 9.296875 -21.25 10.703125 -21.25 Z M 10.703125 -0.890625 C 11.765625 -0.890625 12.757812 -1.144531 13.6875 -1.65625 C 14.625 -2.175781 15.445312 -2.890625 16.15625 -3.796875 C 16.863281 -4.703125 17.414062 -5.75 17.8125 -6.9375 C 18.207031 -8.125 18.40625 -9.378906 18.40625 -10.703125 C 18.40625 -12.035156 18.207031 -13.28125 17.8125 -14.4375 C 17.414062 -15.601562 16.863281 -16.628906 16.15625 -17.515625 C 15.445312 -18.398438 14.625 -19.09375 13.6875 -19.59375 C 12.757812 -20.09375 11.765625 -20.34375 10.703125 -20.34375 C 9.640625 -20.34375 8.640625 -20.09375 7.703125 -19.59375 C 6.773438 -19.09375 5.957031 -18.398438 5.25 -17.515625 C 4.539062 -16.628906 3.988281 -15.601562 3.59375 -14.4375 C 3.195312 -13.28125 3 -12.035156 3 -10.703125 C 3 -9.378906 3.195312 -8.125 3.59375 -6.9375 C 3.988281 -5.75 4.539062 -4.703125 5.25 -3.796875 C 5.957031 -2.890625 6.773438 -2.175781 7.703125 -1.65625 C 8.640625 -1.144531 9.640625 -0.890625 10.703125 -0.890625 Z M 10.703125 -0.890625 "/></g></g></g><g fill="#ff66c4" fill-opacity="1"><g transform="translate(117.192872, 230.71919)"><g><path d="M 3.75 -6.015625 C 3.75 -5.023438 3.921875 -4.175781 4.265625 -3.46875 C 4.609375 -2.769531 5.070312 -2.203125 5.65625 -1.765625 C 6.238281 -1.335938 6.894531 -1.050781 7.625 -0.90625 C 8.351562 -0.757812 9.097656 -0.753906 9.859375 -0.890625 C 10.617188 -1.035156 11.351562 -1.320312 12.0625 -1.75 C 12.769531 -2.175781 13.398438 -2.738281 13.953125 -3.4375 C 14.503906 -4.132812 14.914062 -4.984375 15.1875 -5.984375 C 15.007812 -4.710938 14.625 -3.65625 14.03125 -2.8125 C 13.4375 -1.96875 12.71875 -1.320312 11.875 -0.875 C 11.039062 -0.425781 10.144531 -0.148438 9.1875 -0.046875 C 8.238281 0.046875 7.300781 -0.0078125 6.375 -0.21875 C 5.445312 -0.425781 4.601562 -0.769531 3.84375 -1.25 C 3.082031 -1.738281 2.472656 -2.347656 2.015625 -3.078125 C 1.554688 -3.804688 1.328125 -4.632812 1.328125 -5.5625 L 1.328125 -17.390625 C 1.328125 -18.191406 1.253906 -18.773438 1.109375 -19.140625 C 0.972656 -19.515625 0.835938 -19.753906 0.703125 -19.859375 C 0.566406 -19.960938 0.5 -20.015625 0.5 -20.015625 L 3.75 -21.296875 C 3.75 -21.296875 3.75 -21.238281 3.75 -21.125 C 3.75 -21.019531 3.75 -20.78125 3.75 -20.40625 C 3.75 -20.03125 3.75 -19.441406 3.75 -18.640625 C 3.75 -18.640625 3.75 -18.617188 3.75 -18.578125 C 3.75 -18.535156 3.75 -18.398438 3.75 -18.171875 C 3.75 -17.941406 3.75 -17.570312 3.75 -17.0625 C 3.75 -16.550781 3.75 -15.832031 3.75 -14.90625 C 3.75 -13.988281 3.75 -12.800781 3.75 -11.34375 C 3.75 -9.894531 3.75 -8.117188 3.75 -6.015625 Z M 14.5 0 C 14.5 0 14.566406 -0.0546875 14.703125 -0.171875 C 14.847656 -0.285156 14.988281 -0.53125 15.125 -0.90625 C 15.257812 -1.28125 15.328125 -1.859375 15.328125 -2.640625 L 15.328125 -17.25 C 15.328125 -18.050781 15.257812 -18.644531 15.125 -19.03125 C 14.988281 -19.425781 14.847656 -19.6875 14.703125 -19.8125 C 14.566406 -19.945312 14.5 -20.015625 14.5 -20.015625 L 17.734375 -21.265625 L 17.75 -2.625 C 17.75 -1.84375 17.816406 -1.257812 17.953125 -0.875 C 18.097656 -0.5 18.234375 -0.257812 18.359375 -0.15625 C 18.492188 -0.0507812 18.5625 0 18.5625 0 Z M 14.5 0 "/></g></g></g><g fill="#ff66c4" fill-opacity="1"><g transform="translate(140.122534, 230.71919)"><g><path d="M 3.859375 -15.3125 C 3.890625 -16.40625 4.117188 -17.34375 4.546875 -18.125 C 4.972656 -18.90625 5.523438 -19.535156 6.203125 -20.015625 C 6.890625 -20.503906 7.640625 -20.84375 8.453125 -21.03125 C 9.265625 -21.226562 10.085938 -21.285156 10.921875 -21.203125 C 11.765625 -21.117188 12.5625 -20.898438 13.3125 -20.546875 C 14.070312 -20.191406 14.726562 -19.710938 15.28125 -19.109375 C 15.832031 -18.515625 16.210938 -17.785156 16.421875 -16.921875 L 14.28125 -16.40625 C 14.007812 -17.34375 13.597656 -18.097656 13.046875 -18.671875 C 12.492188 -19.253906 11.859375 -19.660156 11.140625 -19.890625 C 10.421875 -20.128906 9.675781 -20.203125 8.90625 -20.109375 C 8.144531 -20.023438 7.410156 -19.78125 6.703125 -19.375 C 6.003906 -18.976562 5.40625 -18.4375 4.90625 -17.75 C 4.40625 -17.070312 4.054688 -16.257812 3.859375 -15.3125 Z M 0.5 0 C 0.5 0 0.566406 -0.0546875 0.703125 -0.171875 C 0.835938 -0.285156 0.972656 -0.53125 1.109375 -0.90625 C 1.253906 -1.28125 1.328125 -1.859375 1.328125 -2.640625 L 1.328125 -17.25 C 1.328125 -18.050781 1.253906 -18.644531 1.109375 -19.03125 C 0.972656 -19.425781 0.835938 -19.6875 0.703125 -19.8125 C 0.566406 -19.945312 0.5 -20.015625 0.5 -20.015625 L 3.734375 -21.265625 L 3.75 -2.625 C 3.75 -1.84375 3.816406 -1.257812 3.953125 -0.875 C 4.097656 -0.5 4.234375 -0.257812 4.359375 -0.15625 C 4.492188 -0.0507812 4.5625 0 4.5625 0 Z M 0.5 0 "/></g></g></g><g fill="#ff66c4" fill-opacity="1"><g transform="translate(160.90823, 230.71919)"><g/></g></g><g fill="#ff66c4" fill-opacity="1"><g transform="translate(174.706177, 230.71919)"><g><path d="M 18.96875 -7.703125 C 18.96875 -8.628906 18.773438 -9.410156 18.390625 -10.046875 C 18.003906 -10.691406 17.476562 -11.238281 16.8125 -11.6875 C 16.15625 -12.144531 15.398438 -12.535156 14.546875 -12.859375 C 13.703125 -13.179688 12.804688 -13.476562 11.859375 -13.75 C 10.921875 -14.03125 9.976562 -14.320312 9.03125 -14.625 C 8.082031 -14.925781 7.179688 -15.273438 6.328125 -15.671875 C 5.484375 -16.066406 4.726562 -16.546875 4.0625 -17.109375 C 3.40625 -17.679688 2.882812 -18.375 2.5 -19.1875 C 2.113281 -20.007812 1.921875 -20.988281 1.921875 -22.125 C 1.921875 -22.3125 1.960938 -22.59375 2.046875 -22.96875 C 2.140625 -23.34375 2.296875 -23.769531 2.515625 -24.25 C 2.742188 -24.726562 3.066406 -25.210938 3.484375 -25.703125 C 3.910156 -26.203125 4.457031 -26.65625 5.125 -27.0625 C 5.800781 -27.476562 6.625 -27.8125 7.59375 -28.0625 C 8.570312 -28.320312 9.722656 -28.453125 11.046875 -28.453125 C 12.285156 -28.453125 13.441406 -28.347656 14.515625 -28.140625 C 15.585938 -27.941406 16.523438 -27.703125 17.328125 -27.421875 C 18.128906 -27.148438 18.753906 -26.910156 19.203125 -26.703125 C 19.648438 -26.492188 19.875 -26.390625 19.875 -26.390625 L 19.078125 -22.03125 C 19.078125 -22.03125 19.035156 -22.164062 18.953125 -22.4375 C 18.878906 -22.707031 18.738281 -23.0625 18.53125 -23.5 C 18.320312 -23.9375 18.019531 -24.394531 17.625 -24.875 C 17.238281 -25.351562 16.734375 -25.8125 16.109375 -26.25 C 15.492188 -26.6875 14.742188 -27.039062 13.859375 -27.3125 C 12.984375 -27.582031 11.945312 -27.71875 10.75 -27.71875 C 10.0625 -27.71875 9.347656 -27.617188 8.609375 -27.421875 C 7.867188 -27.234375 7.1875 -26.925781 6.5625 -26.5 C 5.9375 -26.082031 5.425781 -25.515625 5.03125 -24.796875 C 4.644531 -24.085938 4.453125 -23.203125 4.453125 -22.140625 C 4.453125 -21.253906 4.648438 -20.5 5.046875 -19.875 C 5.441406 -19.257812 5.984375 -18.734375 6.671875 -18.296875 C 7.359375 -17.859375 8.140625 -17.472656 9.015625 -17.140625 C 9.898438 -16.816406 10.835938 -16.519531 11.828125 -16.25 C 12.816406 -15.976562 13.800781 -15.691406 14.78125 -15.390625 C 15.757812 -15.085938 16.6875 -14.738281 17.5625 -14.34375 C 18.445312 -13.957031 19.234375 -13.484375 19.921875 -12.921875 C 20.609375 -12.359375 21.148438 -11.675781 21.546875 -10.875 C 21.941406 -10.082031 22.140625 -9.140625 22.140625 -8.046875 C 22.140625 -6.117188 21.675781 -4.566406 20.75 -3.390625 C 19.832031 -2.210938 18.535156 -1.351562 16.859375 -0.8125 C 15.179688 -0.269531 13.179688 0 10.859375 0 C 9.472656 0 8.242188 -0.125 7.171875 -0.375 C 6.097656 -0.625 5.171875 -0.945312 4.390625 -1.34375 C 3.609375 -1.75 2.945312 -2.171875 2.40625 -2.609375 C 1.875 -3.054688 1.453125 -3.46875 1.140625 -3.84375 C 0.828125 -4.226562 0.613281 -4.535156 0.5 -4.765625 L 2.1875 -7.5 C 2.25 -7.25 2.398438 -6.859375 2.640625 -6.328125 C 2.890625 -5.804688 3.234375 -5.222656 3.671875 -4.578125 C 4.117188 -3.929688 4.675781 -3.3125 5.34375 -2.71875 C 6.019531 -2.132812 6.816406 -1.648438 7.734375 -1.265625 C 8.648438 -0.878906 9.703125 -0.6875 10.890625 -0.6875 C 12.722656 -0.6875 14.234375 -0.972656 15.421875 -1.546875 C 16.617188 -2.128906 17.507812 -2.945312 18.09375 -4 C 18.675781 -5.050781 18.96875 -6.285156 18.96875 -7.703125 Z M 18.96875 -7.703125 "/></g></g></g><g fill="#ff66c4" fill-opacity="1"><g transform="translate(201.209124, 230.71919)"><g><path d="M 2.5 -26.65625 C 3.0625 -26.65625 3.535156 -26.453125 3.921875 -26.046875 C 4.316406 -25.648438 4.515625 -25.175781 4.515625 -24.625 C 4.515625 -24.082031 4.316406 -23.613281 3.921875 -23.21875 C 3.535156 -22.832031 3.0625 -22.640625 2.5 -22.640625 C 1.957031 -22.640625 1.488281 -22.832031 1.09375 -23.21875 C 0.695312 -23.613281 0.5 -24.082031 0.5 -24.625 C 0.5 -25.175781 0.695312 -25.648438 1.09375 -26.046875 C 1.488281 -26.453125 1.957031 -26.65625 2.5 -26.65625 Z M 0.6875 0 C 0.6875 0 0.753906 -0.0546875 0.890625 -0.171875 C 1.035156 -0.285156 1.175781 -0.53125 1.3125 -0.90625 C 1.457031 -1.28125 1.53125 -1.859375 1.53125 -2.640625 L 1.53125 -17.25 C 1.53125 -18.050781 1.457031 -18.644531 1.3125 -19.03125 C 1.175781 -19.425781 1.035156 -19.6875 0.890625 -19.8125 C 0.753906 -19.945312 0.6875 -20.015625 0.6875 -20.015625 L 3.9375 -21.265625 L 3.953125 -2.625 C 3.953125 -1.84375 4.019531 -1.257812 4.15625 -0.875 C 4.300781 -0.5 4.4375 -0.257812 4.5625 -0.15625 C 4.695312 -0.0507812 4.765625 0 4.765625 0 Z M 0.6875 0 "/></g></g></g><g fill="#ff66c4" fill-opacity="1"><g transform="translate(210.341955, 230.71919)"><g><path d="M 16.515625 -5.625 C 16.515625 -6.363281 16.304688 -6.96875 15.890625 -7.4375 C 15.472656 -7.90625 14.90625 -8.285156 14.1875 -8.578125 C 13.476562 -8.867188 12.679688 -9.113281 11.796875 -9.3125 C 10.910156 -9.519531 9.992188 -9.722656 9.046875 -9.921875 C 8.109375 -10.128906 7.195312 -10.367188 6.3125 -10.640625 C 5.425781 -10.910156 4.625 -11.257812 3.90625 -11.6875 C 3.195312 -12.113281 2.632812 -12.664062 2.21875 -13.34375 C 1.800781 -14.03125 1.59375 -14.878906 1.59375 -15.890625 C 1.59375 -16.035156 1.613281 -16.265625 1.65625 -16.578125 C 1.707031 -16.890625 1.8125 -17.242188 1.96875 -17.640625 C 2.132812 -18.046875 2.394531 -18.457031 2.75 -18.875 C 3.101562 -19.289062 3.585938 -19.675781 4.203125 -20.03125 C 4.816406 -20.394531 5.585938 -20.6875 6.515625 -20.90625 C 7.453125 -21.125 8.582031 -21.234375 9.90625 -21.234375 C 11.164062 -21.234375 12.28125 -21.140625 13.25 -20.953125 C 14.21875 -20.773438 15.035156 -20.570312 15.703125 -20.34375 C 16.367188 -20.113281 16.875 -19.910156 17.21875 -19.734375 C 17.5625 -19.554688 17.734375 -19.46875 17.734375 -19.46875 L 16.953125 -16.203125 C 16.953125 -16.203125 16.9375 -16.304688 16.90625 -16.515625 C 16.875 -16.734375 16.789062 -17.015625 16.65625 -17.359375 C 16.53125 -17.703125 16.3125 -18.0625 16 -18.4375 C 15.695312 -18.8125 15.273438 -19.164062 14.734375 -19.5 C 14.203125 -19.84375 13.515625 -20.125 12.671875 -20.34375 C 11.835938 -20.5625 10.816406 -20.671875 9.609375 -20.671875 C 8.921875 -20.671875 8.25 -20.566406 7.59375 -20.359375 C 6.9375 -20.160156 6.347656 -19.859375 5.828125 -19.453125 C 5.304688 -19.054688 4.890625 -18.5625 4.578125 -17.96875 C 4.265625 -17.375 4.109375 -16.6875 4.109375 -15.90625 C 4.109375 -15.164062 4.328125 -14.554688 4.765625 -14.078125 C 5.203125 -13.597656 5.789062 -13.203125 6.53125 -12.890625 C 7.269531 -12.585938 8.101562 -12.332031 9.03125 -12.125 C 9.957031 -11.914062 10.910156 -11.710938 11.890625 -11.515625 C 12.867188 -11.316406 13.820312 -11.09375 14.75 -10.84375 C 15.675781 -10.59375 16.507812 -10.269531 17.25 -9.875 C 18 -9.476562 18.59375 -8.96875 19.03125 -8.34375 C 19.46875 -7.726562 19.6875 -6.957031 19.6875 -6.03125 C 19.6875 -4.875 19.359375 -3.835938 18.703125 -2.921875 C 18.046875 -2.015625 17.003906 -1.300781 15.578125 -0.78125 C 14.148438 -0.257812 12.28125 0 9.96875 0 C 8.582031 0 7.382812 -0.09375 6.375 -0.28125 C 5.363281 -0.46875 4.507812 -0.707031 3.8125 -1 C 3.113281 -1.300781 2.539062 -1.613281 2.09375 -1.9375 C 1.65625 -2.257812 1.304688 -2.566406 1.046875 -2.859375 C 0.796875 -3.148438 0.613281 -3.375 0.5 -3.53125 L 2.1875 -5.578125 C 2.25 -5.390625 2.375 -5.097656 2.5625 -4.703125 C 2.75 -4.304688 3.019531 -3.867188 3.375 -3.390625 C 3.726562 -2.921875 4.195312 -2.46875 4.78125 -2.03125 C 5.363281 -1.59375 6.082031 -1.226562 6.9375 -0.9375 C 7.789062 -0.65625 8.816406 -0.515625 10.015625 -0.515625 C 11.109375 -0.515625 12.039062 -0.632812 12.8125 -0.875 C 13.582031 -1.125 14.207031 -1.445312 14.6875 -1.84375 C 15.164062 -2.238281 15.539062 -2.664062 15.8125 -3.125 C 16.082031 -3.582031 16.265625 -4.03125 16.359375 -4.46875 C 16.460938 -4.914062 16.515625 -5.300781 16.515625 -5.625 Z M 16.515625 -5.625 "/></g></g></g><g fill="#ff66c4" fill-opacity="1"><g transform="translate(234.383312, 230.71919)"><g><path d="M 5.78125 -21.25 L 9.25 -21.25 L 9.25 -20.578125 L 5.78125 -20.578125 L 5.796875 -3.09375 C 5.785156 -2.539062 5.890625 -2.140625 6.109375 -1.890625 C 6.335938 -1.640625 6.609375 -1.5 6.921875 -1.46875 C 7.242188 -1.445312 7.539062 -1.5 7.8125 -1.625 C 8.09375 -1.757812 8.273438 -1.929688 8.359375 -2.140625 C 8.359375 -1.492188 8.125 -0.972656 7.65625 -0.578125 C 7.1875 -0.191406 6.628906 0 5.984375 0 C 5.816406 0 5.59375 -0.0351562 5.3125 -0.109375 C 5.03125 -0.179688 4.738281 -0.328125 4.4375 -0.546875 C 4.132812 -0.765625 3.878906 -1.078125 3.671875 -1.484375 C 3.472656 -1.898438 3.375 -2.445312 3.375 -3.125 C 3.375 -7.675781 3.375 -11.367188 3.375 -14.203125 C 3.375 -17.046875 3.375 -19.171875 3.375 -20.578125 L 0.5 -20.578125 L 0.5 -21.25 L 3.375 -21.25 C 3.375 -21.789062 3.375 -22.1875 3.375 -22.4375 C 3.375 -22.6875 3.375 -22.8125 3.375 -22.8125 C 3.375 -23.613281 3.300781 -24.207031 3.15625 -24.59375 C 3.019531 -24.988281 2.882812 -25.25 2.75 -25.375 C 2.613281 -25.507812 2.546875 -25.578125 2.546875 -25.578125 L 5.78125 -26.828125 Z M 5.78125 -21.25 "/></g></g></g><g fill="#ff66c4" fill-opacity="1"><g transform="translate(248.002593, 230.71919)"><g><path d="M 3 -11.09375 C 3.007812 -9.5 3.238281 -8.117188 3.6875 -6.953125 C 4.144531 -5.785156 4.753906 -4.8125 5.515625 -4.03125 C 6.273438 -3.25 7.128906 -2.640625 8.078125 -2.203125 C 9.023438 -1.773438 10.007812 -1.507812 11.03125 -1.40625 C 12.0625 -1.300781 13.066406 -1.332031 14.046875 -1.5 C 15.035156 -1.675781 15.945312 -1.972656 16.78125 -2.390625 C 17.613281 -2.804688 18.3125 -3.328125 18.875 -3.953125 C 19.4375 -4.585938 19.804688 -5.304688 19.984375 -6.109375 C 19.898438 -5.316406 19.628906 -4.554688 19.171875 -3.828125 C 18.710938 -3.097656 18.109375 -2.441406 17.359375 -1.859375 C 16.617188 -1.285156 15.757812 -0.828125 14.78125 -0.484375 C 13.8125 -0.148438 12.769531 0.015625 11.65625 0.015625 C 9.945312 0.015625 8.40625 -0.273438 7.03125 -0.859375 C 5.664062 -1.453125 4.492188 -2.257812 3.515625 -3.28125 C 2.546875 -4.3125 1.800781 -5.488281 1.28125 -6.8125 C 0.757812 -8.132812 0.5 -9.53125 0.5 -11 C 0.5 -12.46875 0.769531 -13.820312 1.3125 -15.0625 C 1.863281 -16.3125 2.617188 -17.394531 3.578125 -18.3125 C 4.546875 -19.238281 5.65625 -19.957031 6.90625 -20.46875 C 8.164062 -20.988281 9.5 -21.25 10.90625 -21.25 C 12.3125 -21.25 13.601562 -21.066406 14.78125 -20.703125 C 15.96875 -20.335938 16.992188 -19.765625 17.859375 -18.984375 C 18.734375 -18.203125 19.410156 -17.179688 19.890625 -15.921875 C 20.367188 -14.671875 20.609375 -13.148438 20.609375 -11.359375 L 3 -11.359375 Z M 10.90625 -20.34375 C 9.894531 -20.34375 8.929688 -20.132812 8.015625 -19.71875 C 7.109375 -19.3125 6.289062 -18.734375 5.5625 -17.984375 C 4.84375 -17.234375 4.257812 -16.347656 3.8125 -15.328125 C 3.363281 -14.304688 3.097656 -13.1875 3.015625 -11.96875 L 18.34375 -11.96875 C 18.34375 -13.164062 18.195312 -14.269531 17.90625 -15.28125 C 17.613281 -16.289062 17.164062 -17.171875 16.5625 -17.921875 C 15.96875 -18.679688 15.195312 -19.273438 14.25 -19.703125 C 13.3125 -20.128906 12.195312 -20.34375 10.90625 -20.34375 Z M 10.90625 -20.34375 "/></g></g></g><g fill="#ff66c4" fill-opacity="1"><g transform="translate(272.976964, 230.71919)"><g><path d="M 3.859375 -15.3125 C 3.890625 -16.40625 4.117188 -17.34375 4.546875 -18.125 C 4.972656 -18.90625 5.523438 -19.535156 6.203125 -20.015625 C 6.890625 -20.503906 7.640625 -20.84375 8.453125 -21.03125 C 9.265625 -21.226562 10.085938 -21.285156 10.921875 -21.203125 C 11.765625 -21.117188 12.5625 -20.898438 13.3125 -20.546875 C 14.070312 -20.191406 14.726562 -19.710938 15.28125 -19.109375 C 15.832031 -18.515625 16.210938 -17.785156 16.421875 -16.921875 L 14.28125 -16.40625 C 14.007812 -17.34375 13.597656 -18.097656 13.046875 -18.671875 C 12.492188 -19.253906 11.859375 -19.660156 11.140625 -19.890625 C 10.421875 -20.128906 9.675781 -20.203125 8.90625 -20.109375 C 8.144531 -20.023438 7.410156 -19.78125 6.703125 -19.375 C 6.003906 -18.976562 5.40625 -18.4375 4.90625 -17.75 C 4.40625 -17.070312 4.054688 -16.257812 3.859375 -15.3125 Z M 0.5 0 C 0.5 0 0.566406 -0.0546875 0.703125 -0.171875 C 0.835938 -0.285156 0.972656 -0.53125 1.109375 -0.90625 C 1.253906 -1.28125 1.328125 -1.859375 1.328125 -2.640625 L 1.328125 -17.25 C 1.328125 -18.050781 1.253906 -18.644531 1.109375 -19.03125 C 0.972656 -19.425781 0.835938 -19.6875 0.703125 -19.8125 C 0.566406 -19.945312 0.5 -20.015625 0.5 -20.015625 L 3.734375 -21.265625 L 3.75 -2.625 C 3.75 -1.84375 3.816406 -1.257812 3.953125 -0.875 C 4.097656 -0.5 4.234375 -0.257812 4.359375 -0.15625 C 4.492188 -0.0507812 4.5625 0 4.5625 0 Z M 0.5 0 "/></g></g></g><g fill="#ff66c4" fill-opacity="1"><g transform="translate(293.762661, 230.71919)"><g><path d="M 16.515625 -5.625 C 16.515625 -6.363281 16.304688 -6.96875 15.890625 -7.4375 C 15.472656 -7.90625 14.90625 -8.285156 14.1875 -8.578125 C 13.476562 -8.867188 12.679688 -9.113281 11.796875 -9.3125 C 10.910156 -9.519531 9.992188 -9.722656 9.046875 -9.921875 C 8.109375 -10.128906 7.195312 -10.367188 6.3125 -10.640625 C 5.425781 -10.910156 4.625 -11.257812 3.90625 -11.6875 C 3.195312 -12.113281 2.632812 -12.664062 2.21875 -13.34375 C 1.800781 -14.03125 1.59375 -14.878906 1.59375 -15.890625 C 1.59375 -16.035156 1.613281 -16.265625 1.65625 -16.578125 C 1.707031 -16.890625 1.8125 -17.242188 1.96875 -17.640625 C 2.132812 -18.046875 2.394531 -18.457031 2.75 -18.875 C 3.101562 -19.289062 3.585938 -19.675781 4.203125 -20.03125 C 4.816406 -20.394531 5.585938 -20.6875 6.515625 -20.90625 C 7.453125 -21.125 8.582031 -21.234375 9.90625 -21.234375 C 11.164062 -21.234375 12.28125 -21.140625 13.25 -20.953125 C 14.21875 -20.773438 15.035156 -20.570312 15.703125 -20.34375 C 16.367188 -20.113281 16.875 -19.910156 17.21875 -19.734375 C 17.5625 -19.554688 17.734375 -19.46875 17.734375 -19.46875 L 16.953125 -16.203125 C 16.953125 -16.203125 16.9375 -16.304688 16.90625 -16.515625 C 16.875 -16.734375 16.789062 -17.015625 16.65625 -17.359375 C 16.53125 -17.703125 16.3125 -18.0625 16 -18.4375 C 15.695312 -18.8125 15.273438 -19.164062 14.734375 -19.5 C 14.203125 -19.84375 13.515625 -20.125 12.671875 -20.34375 C 11.835938 -20.5625 10.816406 -20.671875 9.609375 -20.671875 C 8.921875 -20.671875 8.25 -20.566406 7.59375 -20.359375 C 6.9375 -20.160156 6.347656 -19.859375 5.828125 -19.453125 C 5.304688 -19.054688 4.890625 -18.5625 4.578125 -17.96875 C 4.265625 -17.375 4.109375 -16.6875 4.109375 -15.90625 C 4.109375 -15.164062 4.328125 -14.554688 4.765625 -14.078125 C 5.203125 -13.597656 5.789062 -13.203125 6.53125 -12.890625 C 7.269531 -12.585938 8.101562 -12.332031 9.03125 -12.125 C 9.957031 -11.914062 10.910156 -11.710938 11.890625 -11.515625 C 12.867188 -11.316406 13.820312 -11.09375 14.75 -10.84375 C 15.675781 -10.59375 16.507812 -10.269531 17.25 -9.875 C 18 -9.476562 18.59375 -8.96875 19.03125 -8.34375 C 19.46875 -7.726562 19.6875 -6.957031 19.6875 -6.03125 C 19.6875 -4.875 19.359375 -3.835938 18.703125 -2.921875 C 18.046875 -2.015625 17.003906 -1.300781 15.578125 -0.78125 C 14.148438 -0.257812 12.28125 0 9.96875 0 C 8.582031 0 7.382812 -0.09375 6.375 -0.28125 C 5.363281 -0.46875 4.507812 -0.707031 3.8125 -1 C 3.113281 -1.300781 2.539062 -1.613281 2.09375 -1.9375 C 1.65625 -2.257812 1.304688 -2.566406 1.046875 -2.859375 C 0.796875 -3.148438 0.613281 -3.375 0.5 -3.53125 L 2.1875 -5.578125 C 2.25 -5.390625 2.375 -5.097656 2.5625 -4.703125 C 2.75 -4.304688 3.019531 -3.867188 3.375 -3.390625 C 3.726562 -2.921875 4.195312 -2.46875 4.78125 -2.03125 C 5.363281 -1.59375 6.082031 -1.226562 6.9375 -0.9375 C 7.789062 -0.65625 8.816406 -0.515625 10.015625 -0.515625 C 11.109375 -0.515625 12.039062 -0.632812 12.8125 -0.875 C 13.582031 -1.125 14.207031 -1.445312 14.6875 -1.84375 C 15.164062 -2.238281 15.539062 -2.664062 15.8125 -3.125 C 16.082031 -3.582031 16.265625 -4.03125 16.359375 -4.46875 C 16.460938 -4.914062 16.515625 -5.300781 16.515625 -5.625 Z M 16.515625 -5.625 "/></g></g></g><g fill="#8a5d3b" fill-opacity="1"><g transform="translate(137.333652, 257.992337)"><g><path d="M 13.625 -4.0625 C 13.132812 -2.78125 12.332031 -1.757812 11.21875 -1 C 10.082031 -0.207031 8.835938 0.1875 7.484375 0.1875 C 5.648438 0.1875 4.082031 -0.484375 2.78125 -1.828125 C 1.507812 -3.160156 0.875 -4.753906 0.875 -6.609375 C 0.875 -7.535156 1.046875 -8.414062 1.390625 -9.25 C 1.722656 -10.0625 2.1875 -10.78125 2.78125 -11.40625 C 4.082031 -12.757812 5.648438 -13.4375 7.484375 -13.4375 C 8.835938 -13.4375 10.070312 -13.050781 11.1875 -12.28125 C 12.3125 -11.5 13.117188 -10.476562 13.609375 -9.21875 L 12.109375 -9.21875 C 11.390625 -10.53125 10.320312 -11.40625 8.90625 -11.84375 C 8.4375 -11.96875 7.898438 -12.03125 7.296875 -12.03125 C 6.679688 -12.03125 6.054688 -11.890625 5.421875 -11.609375 C 4.785156 -11.304688 4.234375 -10.90625 3.765625 -10.40625 C 2.753906 -9.351562 2.25 -8.085938 2.25 -6.609375 C 2.25 -5.140625 2.753906 -3.878906 3.765625 -2.828125 C 4.785156 -1.742188 6.023438 -1.203125 7.484375 -1.203125 C 8.472656 -1.203125 9.382812 -1.460938 10.21875 -1.984375 C 11.039062 -2.503906 11.675781 -3.195312 12.125 -4.0625 Z M 13.625 -4.0625 "/></g></g></g><g fill="#8a5d3b" fill-opacity="1"><g transform="translate(151.560059, 257.992337)"><g><path d="M 8.484375 -4.328125 C 8.484375 -5.179688 8.175781 -5.914062 7.5625 -6.53125 C 6.957031 -7.144531 6.222656 -7.453125 5.359375 -7.453125 C 4.503906 -7.453125 3.769531 -7.144531 3.15625 -6.53125 C 2.550781 -5.914062 2.25 -5.179688 2.25 -4.328125 C 2.25 -3.484375 2.550781 -2.753906 3.15625 -2.140625 C 3.769531 -1.535156 4.503906 -1.234375 5.359375 -1.234375 C 6.222656 -1.234375 6.957031 -1.535156 7.5625 -2.140625 C 8.175781 -2.753906 8.484375 -3.484375 8.484375 -4.328125 Z M 9.84375 -4.328125 C 9.84375 -3.078125 9.410156 -2.023438 8.546875 -1.171875 C 7.648438 -0.296875 6.585938 0.140625 5.359375 0.140625 C 4.140625 0.140625 3.085938 -0.296875 2.203125 -1.171875 C 1.316406 -2.023438 0.875 -3.078125 0.875 -4.328125 C 0.875 -5.566406 1.316406 -6.625 2.203125 -7.5 C 3.078125 -8.375 4.128906 -8.8125 5.359375 -8.8125 C 6.597656 -8.8125 7.660156 -8.375 8.546875 -7.5 C 9.410156 -6.625 9.84375 -5.566406 9.84375 -4.328125 Z M 9.84375 -4.328125 "/></g></g></g><g fill="#8a5d3b" fill-opacity="1"><g transform="translate(162.298067, 257.992337)"><g><path d="M 6.0625 -13.359375 L 4.890625 -13.359375 C 4.441406 -13.359375 4.144531 -13.253906 4 -13.046875 C 3.851562 -12.835938 3.78125 -12.582031 3.78125 -12.28125 L 3.78125 -8.578125 L 6.0625 -8.578125 L 6.0625 -7.3125 L 3.78125 -7.3125 L 3.78125 0 L 2.421875 0 L 2.421875 -7.3125 L 0.6875 -7.3125 L 0.6875 -8.578125 L 2.421875 -8.578125 L 2.421875 -11.890625 C 2.421875 -12.765625 2.628906 -13.441406 3.046875 -13.921875 C 3.441406 -14.390625 4.125 -14.625 5.09375 -14.625 L 6.0625 -14.625 Z M 6.0625 -13.359375 "/></g></g></g><g fill="#8a5d3b" fill-opacity="1"><g transform="translate(168.963043, 257.992337)"><g><path d="M 6.0625 -13.359375 L 4.890625 -13.359375 C 4.441406 -13.359375 4.144531 -13.253906 4 -13.046875 C 3.851562 -12.835938 3.78125 -12.582031 3.78125 -12.28125 L 3.78125 -8.578125 L 6.0625 -8.578125 L 6.0625 -7.3125 L 3.78125 -7.3125 L 3.78125 0 L 2.421875 0 L 2.421875 -7.3125 L 0.6875 -7.3125 L 0.6875 -8.578125 L 2.421875 -8.578125 L 2.421875 -11.890625 C 2.421875 -12.765625 2.628906 -13.441406 3.046875 -13.921875 C 3.441406 -14.390625 4.125 -14.625 5.09375 -14.625 L 6.0625 -14.625 Z M 6.0625 -13.359375 "/></g></g></g><g fill="#8a5d3b" fill-opacity="1"><g transform="translate(175.628018, 257.992337)"><g><path d="M 9.84375 -4.484375 L 9.84375 -3.765625 L 2.296875 -3.765625 C 2.429688 -3.023438 2.789062 -2.421875 3.375 -1.953125 C 3.96875 -1.472656 4.628906 -1.234375 5.359375 -1.234375 C 5.859375 -1.234375 6.332031 -1.347656 6.78125 -1.578125 C 7.226562 -1.796875 7.597656 -2.109375 7.890625 -2.515625 L 9.453125 -2.515625 C 9.085938 -1.691406 8.539062 -1.046875 7.8125 -0.578125 C 7.070312 -0.0976562 6.328125 0.140625 5.578125 0.140625 C 4.804688 0.140625 4.15625 0.0195312 3.625 -0.21875 C 3.082031 -0.445312 2.609375 -0.765625 2.203125 -1.171875 C 1.316406 -2.023438 0.875 -3.078125 0.875 -4.328125 C 0.875 -5.566406 1.316406 -6.625 2.203125 -7.5 C 3.078125 -8.375 4.128906 -8.8125 5.359375 -8.8125 C 6.554688 -8.8125 7.601562 -8.390625 8.5 -7.546875 C 9.394531 -6.691406 9.84375 -5.671875 9.84375 -4.484375 Z M 8.40625 -4.9375 C 8.25 -5.664062 7.882812 -6.269531 7.3125 -6.75 C 6.738281 -7.21875 6.085938 -7.453125 5.359375 -7.453125 C 4.242188 -7.453125 3.367188 -6.953125 2.734375 -5.953125 C 2.535156 -5.640625 2.398438 -5.300781 2.328125 -4.9375 Z M 8.40625 -4.9375 "/></g></g></g><g fill="#8a5d3b" fill-opacity="1"><g transform="translate(186.268591, 257.992337)"><g><path d="M 9.84375 -4.484375 L 9.84375 -3.765625 L 2.296875 -3.765625 C 2.429688 -3.023438 2.789062 -2.421875 3.375 -1.953125 C 3.96875 -1.472656 4.628906 -1.234375 5.359375 -1.234375 C 5.859375 -1.234375 6.332031 -1.347656 6.78125 -1.578125 C 7.226562 -1.796875 7.597656 -2.109375 7.890625 -2.515625 L 9.453125 -2.515625 C 9.085938 -1.691406 8.539062 -1.046875 7.8125 -0.578125 C 7.070312 -0.0976562 6.328125 0.140625 5.578125 0.140625 C 4.804688 0.140625 4.15625 0.0195312 3.625 -0.21875 C 3.082031 -0.445312 2.609375 -0.765625 2.203125 -1.171875 C 1.316406 -2.023438 0.875 -3.078125 0.875 -4.328125 C 0.875 -5.566406 1.316406 -6.625 2.203125 -7.5 C 3.078125 -8.375 4.128906 -8.8125 5.359375 -8.8125 C 6.554688 -8.8125 7.601562 -8.390625 8.5 -7.546875 C 9.394531 -6.691406 9.84375 -5.671875 9.84375 -4.484375 Z M 8.40625 -4.9375 C 8.25 -5.664062 7.882812 -6.269531 7.3125 -6.75 C 6.738281 -7.21875 6.085938 -7.453125 5.359375 -7.453125 C 4.242188 -7.453125 3.367188 -6.953125 2.734375 -5.953125 C 2.535156 -5.640625 2.398438 -5.300781 2.328125 -4.9375 Z M 8.40625 -4.9375 "/></g></g></g><g fill="#8a5d3b" fill-opacity="1"><g transform="translate(196.909164, 257.992337)"><g/></g></g><g fill="#8a5d3b" fill-opacity="1"><g transform="translate(202.19048, 257.992337)"><g><path d="M 13.625 -4.0625 C 13.132812 -2.78125 12.332031 -1.757812 11.21875 -1 C 10.082031 -0.207031 8.835938 0.1875 7.484375 0.1875 C 5.648438 0.1875 4.082031 -0.484375 2.78125 -1.828125 C 1.507812 -3.160156 0.875 -4.753906 0.875 -6.609375 C 0.875 -7.535156 1.046875 -8.414062 1.390625 -9.25 C 1.722656 -10.0625 2.1875 -10.78125 2.78125 -11.40625 C 4.082031 -12.757812 5.648438 -13.4375 7.484375 -13.4375 C 8.835938 -13.4375 10.070312 -13.050781 11.1875 -12.28125 C 12.3125 -11.5 13.117188 -10.476562 13.609375 -9.21875 L 12.109375 -9.21875 C 11.390625 -10.53125 10.320312 -11.40625 8.90625 -11.84375 C 8.4375 -11.96875 7.898438 -12.03125 7.296875 -12.03125 C 6.679688 -12.03125 6.054688 -11.890625 5.421875 -11.609375 C 4.785156 -11.304688 4.234375 -10.90625 3.765625 -10.40625 C 2.753906 -9.351562 2.25 -8.085938 2.25 -6.609375 C 2.25 -5.140625 2.753906 -3.878906 3.765625 -2.828125 C 4.785156 -1.742188 6.023438 -1.203125 7.484375 -1.203125 C 8.472656 -1.203125 9.382812 -1.460938 10.21875 -1.984375 C 11.039062 -2.503906 11.675781 -3.195312 12.125 -4.0625 Z M 13.625 -4.0625 "/></g></g></g><g fill="#8a5d3b" fill-opacity="1"><g transform="translate(216.416888, 257.992337)"><g><path d="M 8.484375 -4.328125 C 8.484375 -5.179688 8.175781 -5.914062 7.5625 -6.53125 C 6.957031 -7.144531 6.222656 -7.453125 5.359375 -7.453125 C 4.503906 -7.453125 3.769531 -7.144531 3.15625 -6.53125 C 2.550781 -5.914062 2.25 -5.179688 2.25 -4.328125 C 2.25 -3.484375 2.550781 -2.753906 3.15625 -2.140625 C 3.769531 -1.535156 4.503906 -1.234375 5.359375 -1.234375 C 6.222656 -1.234375 6.957031 -1.535156 7.5625 -2.140625 C 8.175781 -2.753906 8.484375 -3.484375 8.484375 -4.328125 Z M 9.84375 -4.328125 C 9.84375 -3.078125 9.410156 -2.023438 8.546875 -1.171875 C 7.648438 -0.296875 6.585938 0.140625 5.359375 0.140625 C 4.140625 0.140625 3.085938 -0.296875 2.203125 -1.171875 C 1.316406 -2.023438 0.875 -3.078125 0.875 -4.328125 C 0.875 -5.566406 1.316406 -6.625 2.203125 -7.5 C 3.078125 -8.375 4.128906 -8.8125 5.359375 -8.8125 C 6.597656 -8.8125 7.660156 -8.375 8.546875 -7.5 C 9.410156 -6.625 9.84375 -5.566406 9.84375 -4.328125 Z M 9.84375 -4.328125 "/></g></g></g><g fill="#8a5d3b" fill-opacity="1"><g transform="translate(227.154895, 257.992337)"><g><path d="M 2.59375 0.1875 C 2.289062 0.1875 2.03125 0.078125 1.8125 -0.140625 C 1.582031 -0.347656 1.46875 -0.597656 1.46875 -0.890625 C 1.46875 -1.191406 1.578125 -1.453125 1.796875 -1.671875 C 2.015625 -1.898438 2.28125 -2.015625 2.59375 -2.015625 C 2.90625 -2.015625 3.175781 -1.910156 3.40625 -1.703125 C 3.632812 -1.472656 3.75 -1.210938 3.75 -0.921875 C 3.75 -0.609375 3.628906 -0.347656 3.390625 -0.140625 C 3.160156 0.078125 2.894531 0.1875 2.59375 0.1875 Z M 2.59375 0.1875 "/></g></g></g><g fill="#8a5d3b" fill-opacity="1"><g transform="translate(232.384431, 257.992337)"><g/></g></g></svg>